<svg width="41" height="10" viewBox="0 0 41 10" fill="none" xmlns="http://www.w3.org/2000/svg">
<path d="M40 5.65C40.359 5.65 40.65 5.35898 40.65 5C40.65 4.64101 40.359 4.35 40 4.35L40 5.65ZM0.540381 4.54038C0.28654 4.79422 0.28654 5.20578 0.540381 5.45962L4.67696 9.59619C4.9308 9.85003 5.34235 9.85003 5.59619 9.59619C5.85004 9.34235 5.85004 8.9308 5.59619 8.67695L1.91924 5L5.59619 1.32304C5.85003 1.0692 5.85003 0.657646 5.59619 0.403806C5.34235 0.149965 4.9308 0.149965 4.67695 0.403806L0.540381 4.54038ZM40 4.35L1 4.35L1 5.65L40 5.65L40 4.35Z" fill="#ECA06F"/>
</svg>
