<svg width="26" height="26" viewBox="0 0 26 26" fill="none" xmlns="http://www.w3.org/2000/svg">
<path d="M13.6734 9.95996C12.7913 9.95996 11.9454 10.3103 11.3217 10.934C10.698 11.5577 10.3477 12.4036 10.3477 13.2857C10.3477 14.1677 10.698 15.0136 11.3217 15.6373C11.9454 16.261 12.7913 16.6114 13.6734 16.6114C14.5554 16.6114 15.4013 16.261 16.025 15.6373C16.6487 15.0136 16.9991 14.1677 16.9991 13.2857C16.9991 12.4036 16.6487 11.5577 16.025 10.934C15.4013 10.3103 14.5554 9.95996 13.6734 9.95996ZM13.6734 15.4455C13.1004 15.4455 12.5508 15.2179 12.1456 14.8127C11.7404 14.4075 11.5128 13.858 11.5128 13.285C11.5128 12.7119 11.7404 12.1624 12.1456 11.7572C12.5508 11.352 13.1004 11.1244 13.6734 11.1244C14.2464 11.1244 14.7959 11.352 15.2011 11.7572C15.6063 12.1624 15.8339 12.7119 15.8339 13.285C15.8339 13.858 15.6063 14.4075 15.2011 14.8127C14.7959 15.2179 14.2464 15.4455 13.6734 15.4455Z" fill="white"/>
<path d="M17.1307 10.6102C17.5589 10.6102 17.906 10.2631 17.906 9.8349C17.906 9.4067 17.5589 9.05957 17.1307 9.05957C16.7025 9.05957 16.3553 9.4067 16.3553 9.8349C16.3553 10.2631 16.7025 10.6102 17.1307 10.6102Z" fill="white"/>
<path d="M19.8113 9.04741C19.6448 8.61744 19.3904 8.22697 19.0643 7.901C18.7382 7.57502 18.3476 7.32073 17.9176 7.15439C17.4144 6.96549 16.8828 6.86335 16.3454 6.85231C15.6528 6.82211 15.4334 6.81348 13.677 6.81348C11.9207 6.81348 11.6955 6.81348 11.0087 6.85231C10.4717 6.86278 9.94045 6.96495 9.43788 7.15439C9.00774 7.32054 8.61707 7.57476 8.29095 7.90076C7.96483 8.22676 7.71046 8.61732 7.54415 9.04741C7.35521 9.55059 7.2533 10.0823 7.24279 10.6196C7.21186 11.3115 7.20251 11.5309 7.20251 13.288C7.20251 15.0444 7.20251 15.268 7.24279 15.9563C7.25358 16.4943 7.35499 17.0251 7.54415 17.5293C7.71092 17.9592 7.96554 18.3496 8.29174 18.6756C8.61794 19.0015 9.00855 19.2559 9.4386 19.4223C9.94022 19.6188 10.4717 19.7283 11.0101 19.746C11.7027 19.7762 11.9221 19.7855 13.6785 19.7855C15.4348 19.7855 15.6599 19.7855 16.3468 19.746C16.8842 19.735 17.4158 19.6331 17.9191 19.4446C18.349 19.2779 18.7394 19.0234 19.0655 18.6973C19.3915 18.3712 19.6461 17.9808 19.8128 17.5509C20.0019 17.0474 20.1034 16.5166 20.1141 15.9786C20.1451 15.2867 20.1544 15.0674 20.1544 13.3103C20.1544 11.5532 20.1544 11.3302 20.1141 10.6419C20.1058 10.097 20.0033 9.55752 19.8113 9.04741ZM18.9353 15.9031C18.9307 16.3176 18.855 16.7282 18.7116 17.1172C18.6036 17.3969 18.4383 17.6508 18.2262 17.8628C18.0141 18.0747 17.7601 18.2399 17.4803 18.3478C17.0957 18.4905 16.6894 18.5662 16.2792 18.5715C15.5959 18.6031 15.4032 18.611 13.6511 18.611C11.8977 18.611 11.7186 18.611 11.0223 18.5715C10.6123 18.5664 10.2063 18.4908 9.82195 18.3478C9.54123 18.2406 9.28613 18.0757 9.07315 17.8637C8.86018 17.6517 8.69408 17.3974 8.5856 17.1172C8.44423 16.7324 8.36861 16.3266 8.36191 15.9168C8.33099 15.2335 8.3238 15.0408 8.3238 13.2887C8.3238 11.5359 8.3238 11.3569 8.36191 10.6599C8.36656 10.2457 8.44222 9.83527 8.5856 9.44658C8.80496 8.87911 9.25448 8.43247 9.82195 8.21526C10.2064 8.07295 10.6124 7.9973 11.0223 7.99158C11.7063 7.96065 11.8984 7.95202 13.6511 7.95202C15.4039 7.95202 15.5837 7.95202 16.2792 7.99158C16.6895 7.99651 17.0958 8.07218 17.4803 8.21526C17.7601 8.32334 18.0141 8.48871 18.2261 8.70076C18.4382 8.91281 18.6036 9.16685 18.7116 9.44658C18.853 9.83133 18.9286 10.2371 18.9353 10.647C18.9663 11.331 18.9742 11.523 18.9742 13.2758C18.9742 15.0278 18.9742 15.2163 18.9432 15.9038H18.9353V15.9031Z" fill="white"/>
<circle cx="13.2833" cy="12.8948" r="12.2167" stroke="white" stroke-width="0.7"/>
</svg>
