<svg width="26" height="26" viewBox="0 0 26 26" fill="none" xmlns="http://www.w3.org/2000/svg">
<path d="M13.6734 9.95996C12.7913 9.95996 11.9454 10.3103 11.3217 10.934C10.698 11.5577 10.3477 12.4036 10.3477 13.2857C10.3477 14.1677 10.698 15.0136 11.3217 15.6373C11.9454 16.261 12.7913 16.6114 13.6734 16.6114C14.5554 16.6114 15.4013 16.261 16.025 15.6373C16.6487 15.0136 16.9991 14.1677 16.9991 13.2857C16.9991 12.4036 16.6487 11.5577 16.025 10.934C15.4013 10.3103 14.5554 9.95996 13.6734 9.95996ZM13.6734 15.4455C13.1004 15.4455 12.5508 15.2179 12.1456 14.8127C11.7404 14.4075 11.5128 13.858 11.5128 13.285C11.5128 12.7119 11.7404 12.1624 12.1456 11.7572C12.5508 11.352 13.1004 11.1244 13.6734 11.1244C14.2464 11.1244 14.7959 11.352 15.2011 11.7572C15.6063 12.1624 15.8339 12.7119 15.8339 13.285C15.8339 13.858 15.6063 14.4075 15.2011 14.8127C14.7959 15.2179 14.2464 15.4455 13.6734 15.4455Z" fill="black"/>
<path d="M17.1308 10.6102C17.559 10.6102 17.9061 10.2631 17.9061 9.8349C17.9061 9.4067 17.559 9.05957 17.1308 9.05957C16.7026 9.05957 16.3555 9.4067 16.3555 9.8349C16.3555 10.2631 16.7026 10.6102 17.1308 10.6102Z" fill="black"/>
<path d="M19.8115 9.04741C19.645 8.61744 19.3905 8.22697 19.0644 7.901C18.7383 7.57502 18.3478 7.32073 17.9177 7.15439C17.4145 6.96549 16.8829 6.86335 16.3455 6.85231C15.6529 6.82211 15.4335 6.81348 13.6772 6.81348C11.9208 6.81348 11.6957 6.81348 11.0088 6.85231C10.4718 6.86278 9.94057 6.96495 9.43801 7.15439C9.00786 7.32054 8.61719 7.57476 8.29107 7.90076C7.96495 8.22676 7.71058 8.61732 7.54427 9.04741C7.35533 9.55059 7.25342 10.0823 7.24291 10.6196C7.21199 11.3115 7.20264 11.5309 7.20264 13.288C7.20264 15.0444 7.20264 15.268 7.24291 15.9563C7.2537 16.4943 7.35511 17.0251 7.54427 17.5293C7.71104 17.9592 7.96567 18.3496 8.29187 18.6756C8.61807 19.0015 9.00867 19.2559 9.43872 19.4223C9.94034 19.6188 10.4718 19.7283 11.0102 19.746C11.7029 19.7762 11.9222 19.7855 13.6786 19.7855C15.435 19.7855 15.6601 19.7855 16.3469 19.746C16.8843 19.735 17.4159 19.6331 17.9192 19.4446C18.3491 19.2779 18.7395 19.0234 19.0656 18.6973C19.3917 18.3712 19.6462 17.9808 19.8129 17.5509C20.0021 17.0474 20.1035 16.5166 20.1143 15.9786C20.1452 15.2867 20.1545 15.0674 20.1545 13.3103C20.1545 11.5532 20.1545 11.3302 20.1143 10.6419C20.1059 10.097 20.0035 9.55752 19.8115 9.04741ZM18.9354 15.9031C18.9308 16.3176 18.8552 16.7282 18.7118 17.1172C18.6038 17.3969 18.4384 17.6508 18.2263 17.8628C18.0143 18.0747 17.7602 18.2399 17.4804 18.3478C17.0958 18.4905 16.6895 18.5662 16.2793 18.5715C15.5961 18.6031 15.4033 18.611 13.6513 18.611C11.8978 18.611 11.7187 18.611 11.0225 18.5715C10.6125 18.5664 10.2064 18.4908 9.82207 18.3478C9.54135 18.2406 9.28625 18.0757 9.07328 17.8637C8.8603 17.6517 8.6942 17.3974 8.58572 17.1172C8.44435 16.7324 8.36873 16.3266 8.36204 15.9168C8.33111 15.2335 8.32392 15.0408 8.32392 13.2887C8.32392 11.5359 8.32392 11.3569 8.36204 10.6599C8.36669 10.2457 8.44234 9.83527 8.58572 9.44658C8.80508 8.87911 9.2546 8.43247 9.82207 8.21526C10.2066 8.07295 10.6125 7.9973 11.0225 7.99158C11.7065 7.96065 11.8985 7.95202 13.6513 7.95202C15.404 7.95202 15.5838 7.95202 16.2793 7.99158C16.6896 7.99651 17.0959 8.07218 17.4804 8.21526C17.7602 8.32334 18.0142 8.48871 18.2263 8.70076C18.4383 8.91281 18.6037 9.16685 18.7118 9.44658C18.8531 9.83133 18.9288 10.2371 18.9354 10.647C18.9664 11.331 18.9743 11.523 18.9743 13.2758C18.9743 15.0278 18.9743 15.2163 18.9434 15.9038H18.9354V15.9031Z" fill="black"/>
<circle cx="13.2835" cy="12.8948" r="12.2167" stroke="black" stroke-width="0.7"/>
</svg>
