<svg width="19" height="26" viewBox="0 0 19 26" fill="none" xmlns="http://www.w3.org/2000/svg">
<path d="M17.2727 10.3528C17.2727 8.29132 16.4538 6.3143 14.9961 4.85663C13.5385 3.39896 11.5615 2.58005 9.5 2.58005C7.43854 2.58005 5.46152 3.39896 4.00385 4.85663C2.54618 6.3143 1.72727 8.29132 1.72727 10.3528C1.72727 13.5413 4.27845 17.6971 9.5 22.6751C14.7215 17.6971 17.2727 13.5413 17.2727 10.3528ZM9.5 25.0346C3.16609 19.2776 0 14.3825 0 10.3528C0 7.83322 1.00089 5.41686 2.78248 3.63527C4.56408 1.85367 6.98044 0.852783 9.5 0.852783C12.0196 0.852783 14.4359 1.85367 16.2175 3.63527C17.9991 5.41686 19 7.83322 19 10.3528C19 14.3825 15.8339 19.2776 9.5 25.0346Z" fill="#ECA06F"/>
<path d="M9.49994 12.9436C10.1871 12.9436 10.8461 12.6707 11.332 12.1848C11.8179 11.6989 12.0908 11.0399 12.0908 10.3527C12.0908 9.66557 11.8179 9.00657 11.332 8.52068C10.8461 8.03479 10.1871 7.76182 9.49994 7.76182C8.81279 7.76182 8.15378 8.03479 7.66789 8.52068C7.182 9.00657 6.90903 9.66557 6.90903 10.3527C6.90903 11.0399 7.182 11.6989 7.66789 12.1848C8.15378 12.6707 8.81279 12.9436 9.49994 12.9436ZM9.49994 14.6709C8.35469 14.6709 7.25634 14.216 6.44653 13.4061C5.63671 12.5963 5.18176 11.498 5.18176 10.3527C5.18176 9.20747 5.63671 8.10913 6.44653 7.29931C7.25634 6.4895 8.35469 6.03455 9.49994 6.03455C10.6452 6.03455 11.7435 6.4895 12.5534 7.29931C13.3632 8.10913 13.8181 9.20747 13.8181 10.3527C13.8181 11.498 13.3632 12.5963 12.5534 13.4061C11.7435 14.216 10.6452 14.6709 9.49994 14.6709Z" fill="#ECA06F"/>
</svg>
