<svg xmlns="http://www.w3.org/2000/svg" width="134" height="100" fill="none" viewBox="0 0 134 100"><path fill="#ECA06F" d="M74.2224 10.8987C76.3784 10.7909 78.0494 9.38948 77.4565 6.31707C76.8636 3.24467 73.9529 2.86736 73.9529 2.86736C74.2763 3.62199 74.3302 5.13124 74.3302 5.13124C72.6592 -0.474556 67.4307 0.0105602 67.4307 0.0105602C67.4307 0.0105602 62.2023 -0.474556 60.5313 5.13124C60.5313 5.13124 60.5852 3.62199 60.9086 2.86736C60.9086 2.86736 57.9979 3.24467 57.405 6.31707C56.8121 9.38948 58.483 10.7909 60.6391 10.8987C62.7952 11.0065 63.442 9.9285 63.442 9.9285C63.442 9.9285 62.6335 11.4378 60.3696 11.5995C60.3696 11.5995 61.5554 12.5697 61.8249 14.5641C61.8249 14.5641 62.8491 15.8038 67.3768 15.8577C71.9046 15.8577 72.9287 14.5641 72.9287 14.5641C73.1982 12.5697 74.3841 11.5995 74.3841 11.5995C72.1202 11.4378 71.3117 9.9285 71.3117 9.9285C71.3117 9.9285 72.0663 11.0065 74.2224 10.8987Z"/><path fill="#ECA06F" d="M72.9287 15.2109C71.3116 16.4507 67.9158 16.3428 67.4846 16.2889C67.0534 16.2889 63.6576 16.4507 62.0405 15.2109C62.0405 15.2109 62.31 16.289 62.31 17.0436C62.31 17.0436 63.8193 18.445 67.5385 18.2294C71.2577 18.445 72.767 17.0436 72.767 17.0436C72.6053 16.3429 72.9287 15.2109 72.9287 15.2109Z"/><path fill="#ECA06F" d="M60.0463 33.8609L58.9683 34.939C58.9683 34.939 58.9683 36.9872 61.0704 37.1489L62.2024 35.9092C60.9626 35.5319 60.3158 34.5078 60.0463 33.8609Z"/><path fill="#ECA06F" d="M60.4775 33.4297C60.6931 33.8609 61.2861 35.1007 62.5797 35.4241L71.8508 25.3984V23.8891H74.9232C74.9232 23.8891 87.3746 14.7797 87.3746 7.01782L60.4775 33.4297ZM82.5773 15.5343C82.0922 16.0733 81.6071 16.6124 81.122 17.1514C80.6368 17.6904 80.0978 18.1755 79.5588 18.6606C79.0198 19.1457 78.4808 19.6309 77.9417 20.116C76.8637 21.0862 75.6779 21.9486 74.492 22.8111C75.5701 21.8408 85.9192 10.3058 86.0809 9.98242C85.5958 11.3839 84.8412 12.6236 83.9788 13.8095C83.4936 14.4024 83.0085 14.9414 82.5773 15.5343Z"/><path fill="#ECA06F" d="M74.1148 33.4297L47.2178 7.01782C47.2178 14.7797 59.6691 23.8891 59.6691 23.8891H62.7415V25.3984L72.0126 35.4241C73.3063 35.1546 73.9531 33.8609 74.1148 33.4297ZM56.7045 20.116C56.1655 19.6309 55.6265 19.1457 55.0874 18.6606C54.5484 18.1755 54.0633 17.6365 53.5243 17.1514C53.0392 16.6124 52.5541 16.0733 52.0689 15.5343C51.5838 14.9953 51.1526 14.4024 50.7214 13.8095C49.859 12.6236 49.0504 11.3839 48.6192 9.98242C48.7809 10.3058 59.1301 21.8408 60.2081 22.8111C58.9684 22.0025 57.8364 21.0862 56.7045 20.116Z"/><path fill="#ECA06F" d="M74.546 33.8609C74.2765 34.4539 73.6297 35.478 72.4438 35.9092L73.5758 37.1489C75.678 36.9872 75.678 34.939 75.678 34.939L74.546 33.8609Z"/><path fill="#ED7D3C" d="M53.5246 97.8424H52.0154V99.2439H53.6863V99.6751H51.5303V95.7942H53.6324V96.2254H52.0693V97.4651H53.5785V97.8424H53.5246Z"/><path fill="#ED7D3C" d="M55.4112 99.0283C55.6268 99.19 55.9502 99.2978 56.3275 99.2978C56.8127 99.2978 57.1361 99.0283 57.1361 98.651C57.1361 98.2736 56.9205 98.058 56.3814 97.8963C55.7346 97.6807 55.3573 97.3573 55.3573 96.8183C55.3573 96.2254 55.8424 95.7942 56.5971 95.7942C56.9744 95.7942 57.2978 95.902 57.4595 96.0098L57.2978 96.441C57.19 96.3871 56.9205 96.2793 56.5432 96.2793C56.0041 96.2793 55.8424 96.6027 55.8424 96.8722C55.8424 97.2495 56.058 97.4112 56.5971 97.6268C57.2439 97.8963 57.5673 98.2197 57.5673 98.7588C57.5673 99.3517 57.1361 99.8907 56.2197 99.8907C55.8424 99.8907 55.4651 99.7829 55.2495 99.6212L55.4112 99.0283Z"/><path fill="#ED7D3C" d="M60.1546 96.2254H58.9688V95.7942H61.8255V96.2254H60.6397V99.6751H60.1546V96.2254Z"/><path fill="#ED7D3C" d="M63.4424 95.848C63.7658 95.7941 64.0892 95.7942 64.5204 95.7942C65.2211 95.7942 65.7602 95.9559 66.0836 96.2793C66.407 96.6027 66.6226 97.0339 66.6226 97.6807C66.6226 98.3275 66.407 98.8127 66.0836 99.19C65.7063 99.5673 65.1133 99.729 64.3587 99.729C63.9814 99.729 63.7119 99.729 63.4424 99.6751V95.848ZM63.9275 99.2439C64.0353 99.2439 64.2509 99.2978 64.4126 99.2978C65.4907 99.2978 66.0836 98.7049 66.0836 97.6807C66.0836 96.7644 65.5985 96.1715 64.5204 96.1715C64.2509 96.1715 64.0892 96.1715 63.9275 96.2254V99.2439Z"/><path fill="#ED7D3C" d="M71.6897 96.3871L71.0429 96.7105L70.9351 96.3332L71.7436 95.902H72.1748V99.6212H71.6897V96.3871Z"/><path fill="#ED7D3C" d="M74.9238 99.2978C75.0316 99.2978 75.1394 99.2978 75.355 99.2978C75.6245 99.2439 75.9479 99.1361 76.1096 98.9205C76.3792 98.7049 76.5409 98.3815 76.5948 97.9503C76.3791 98.2198 76.1097 98.3276 75.7323 98.3276C75.0855 98.3276 74.6543 97.8424 74.6543 97.1956C74.6543 96.4949 75.1394 95.8481 75.9479 95.8481C76.7026 95.8481 77.1877 96.441 77.1877 97.4112C77.1877 98.2198 76.9182 98.8127 76.5409 99.1361C76.2714 99.4056 75.8401 99.5673 75.4628 99.6212C75.3011 99.6751 75.1394 99.6751 74.9777 99.6751V99.2978H74.9238ZM75.1394 97.1417C75.1394 97.6269 75.4089 97.9503 75.8401 97.9503C76.1635 97.9503 76.433 97.7886 76.5948 97.5729C76.6487 97.519 76.6487 97.4651 76.6487 97.4112C76.6487 96.7644 76.4331 96.2793 75.894 96.2793C75.4628 96.2254 75.1394 96.6027 75.1394 97.1417Z"/><path fill="#ED7D3C" d="M79.0205 99.2978C79.1283 99.2978 79.2361 99.2978 79.4517 99.2978C79.7212 99.2439 80.0446 99.1361 80.2063 98.9205C80.4758 98.7049 80.6375 98.3815 80.6914 97.9503C80.4758 98.2198 80.2063 98.3276 79.829 98.3276C79.1822 98.3276 78.751 97.8424 78.751 97.1956C78.751 96.4949 79.2361 95.8481 80.0446 95.8481C80.7993 95.8481 81.2844 96.441 81.2844 97.4112C81.2844 98.2198 81.0148 98.8127 80.6375 99.1361C80.368 99.4056 79.9368 99.5673 79.5595 99.6212C79.3978 99.6751 79.2361 99.6751 79.0744 99.6751V99.2978H79.0205ZM79.2361 97.1417C79.2361 97.6269 79.5056 97.9503 79.9368 97.9503C80.2602 97.9503 80.5297 97.7886 80.6914 97.5729C80.7453 97.519 80.7453 97.4651 80.7453 97.4112C80.7453 96.7644 80.5297 96.2793 79.9907 96.2793C79.5056 96.2254 79.2361 96.6027 79.2361 97.1417Z"/><path fill="#ED7D3C" d="M85.3269 97.7346C85.3269 99.0283 84.8417 99.6751 84.0332 99.6751C83.2786 99.6751 82.7935 98.9744 82.7935 97.7346C82.7935 96.4949 83.3325 95.7942 84.0871 95.7942C84.8418 95.8481 85.3269 96.5488 85.3269 97.7346ZM83.2786 97.7885C83.2786 98.7587 83.602 99.2978 84.0332 99.2978C84.5722 99.2978 84.7878 98.7048 84.7878 97.7346C84.7878 96.8183 84.5722 96.2254 84.0332 96.2254C83.602 96.2254 83.2786 96.7644 83.2786 97.7885Z"/><path fill="#ECA06F" d="M88.3989 16.8818H91.3635V17.4748H89.0996V19.3074H91.2018V19.9003H89.0996V22.3798H88.3989V16.8818Z"/><path fill="#ECA06F" d="M97.1312 19.5769C97.1312 21.4635 95.9993 22.4876 94.5439 22.4876C93.0886 22.4876 92.0645 21.3557 92.0645 19.6847C92.0645 17.9599 93.1425 16.774 94.5979 16.774C96.161 16.774 97.1312 17.906 97.1312 19.5769ZM92.8191 19.6308C92.8191 20.8167 93.4659 21.8408 94.5979 21.8408C95.7298 21.8408 96.3766 20.8167 96.3766 19.5769C96.3766 18.4989 95.7837 17.3131 94.5979 17.3131C93.412 17.367 92.8191 18.445 92.8191 19.6308Z"/><path fill="#ECA06F" d="M102.736 19.5769C102.736 21.4635 101.605 22.4876 100.203 22.4876C98.7478 22.4876 97.7236 21.3557 97.7236 19.6847C97.7236 17.9599 98.8017 16.774 100.311 16.774C101.766 16.774 102.736 17.906 102.736 19.5769ZM98.4783 19.6308C98.4783 20.8167 99.1251 21.8408 100.257 21.8408C101.389 21.8408 102.036 20.8167 102.036 19.5769C102.036 18.4989 101.443 17.3131 100.257 17.3131C99.0712 17.367 98.4783 18.445 98.4783 19.6308Z"/><path fill="#ECA06F" d="M103.707 16.9357C104.138 16.8818 104.677 16.8279 105.216 16.8279C106.24 16.8279 106.941 17.0436 107.426 17.5287C107.911 17.9599 108.181 18.6067 108.181 19.523C108.181 20.4394 107.911 21.1401 107.372 21.6791C106.833 22.2181 106.025 22.4876 104.946 22.4876C104.461 22.4876 104.03 22.4876 103.653 22.4337V16.9357H103.707ZM104.407 21.8408C104.569 21.8947 104.839 21.8947 105.108 21.8947C106.617 21.8947 107.48 21.0323 107.48 19.5769C107.48 18.2833 106.725 17.4748 105.27 17.4748C104.893 17.4748 104.623 17.5287 104.461 17.5287V21.8408H104.407Z"/><path fill="#ECA06F" d="M33.5808 22.1103C33.2574 22.2181 32.6106 22.4337 31.9098 22.4337C31.1013 22.4337 30.4006 22.2181 29.8616 21.6791C29.3764 21.194 29.1069 20.4933 29.1069 19.6308C29.1069 18.0138 30.2389 16.774 32.0715 16.774C32.7184 16.774 33.2035 16.9358 33.473 17.0436L33.3113 17.6365C33.0418 17.5287 32.6645 17.4209 32.0715 17.4209C30.724 17.4209 29.8616 18.2294 29.8616 19.6308C29.8616 21.0323 30.724 21.8408 31.9637 21.8408C32.4488 21.8408 32.7723 21.7869 32.934 21.6791V20.0621H31.802V19.4691H33.6347V22.1103H33.5808Z"/><path fill="#ECA06F" d="M39.3483 19.5769C39.3483 21.4635 38.2164 22.4876 36.8149 22.4876C35.3596 22.4876 34.3354 21.3557 34.3354 19.6847C34.3354 17.9599 35.4135 16.774 36.8688 16.774C38.3781 16.774 39.3483 17.906 39.3483 19.5769ZM35.0901 19.6308C35.0901 20.8167 35.7369 21.8408 36.8688 21.8408C38.0008 21.8408 38.6476 20.8167 38.6476 19.5769C38.6476 18.4989 38.0547 17.3131 36.8688 17.3131C35.683 17.367 35.0901 18.445 35.0901 19.6308Z"/><path fill="#ECA06F" d="M45.0082 19.5769C45.0082 21.4635 43.8762 22.4876 42.4209 22.4876C40.9655 22.4876 39.9414 21.3557 39.9414 19.6847C39.9414 17.9599 41.0194 16.774 42.5287 16.774C44.0379 16.774 45.0082 17.906 45.0082 19.5769ZM40.7499 19.6308C40.7499 20.8167 41.3968 21.8408 42.5287 21.8408C43.6606 21.8408 44.3074 20.8167 44.3074 19.5769C44.3074 18.4989 43.7145 17.3131 42.5287 17.3131C41.3429 17.367 40.7499 18.445 40.7499 19.6308Z"/><path fill="#ECA06F" d="M45.924 16.9357C46.3552 16.8818 46.8942 16.8279 47.4333 16.8279C48.4574 16.8279 49.1581 17.0436 49.6432 17.5287C50.1284 17.9599 50.3979 18.6067 50.3979 19.523C50.3979 20.4394 50.1284 21.1401 49.5893 21.6791C49.0503 22.2181 48.2418 22.4876 47.1638 22.4876C46.6786 22.4876 46.2474 22.4876 45.8701 22.4337V16.9357H45.924ZM46.6247 21.8408C46.7864 21.8947 47.056 21.8947 47.3255 21.8947C48.8347 21.8947 49.6971 21.0323 49.6971 19.5769C49.6971 18.2833 48.9425 17.4748 47.4872 17.4748C47.1099 17.4748 46.8403 17.5287 46.6786 17.5287V21.8408H46.6247Z"/><path fill="#ED7D3C" d="M1.45535 84.2053C2.25911 84.2053 2.9107 83.5537 2.9107 82.7499C2.9107 81.9462 2.25911 81.2946 1.45535 81.2946C0.65158 81.2946 0 81.9462 0 82.7499C0 83.5537 0.65158 84.2053 1.45535 84.2053Z"/><path fill="#ED7D3C" d="M132.545 84.2053C133.348 84.2053 134 83.5537 134 82.7499C134 81.9461 133.348 81.2946 132.545 81.2946C131.741 81.2946 131.089 81.9461 131.089 82.7499C131.089 83.5537 131.741 84.2053 132.545 84.2053Z"/><path fill="#ED7D3C" d="M66.5684 48.5222C37.4075 48.5222 22.2072 29.7105 22.2072 29.7105L8.24658 45.1803C27.0583 67.3879 53.578 69.8135 66.5684 69.8135C78.6963 69.8135 106.025 67.4418 124.89 45.1803L110.93 29.7105C110.93 29.6566 95.7293 48.5222 66.5684 48.5222Z"/><path fill="#ED7D3C" d="M122.465 39.844L130.604 31.9205L118.638 30.1417L116.374 17.6904L101.875 31.3275L111.577 27.8239L122.465 39.844Z"/><path fill="#ED7D3C" d="M21.5606 27.8239L31.2629 31.3275L16.8172 17.6904L14.4994 30.1417L2.5332 31.9205L10.7263 39.844L21.5606 27.8239Z"/><path fill="#fff" d="M23.6628 38.9277C24.3096 39.2511 25.1181 39.7901 25.8188 40.383C26.9508 41.2994 27.4898 42.054 27.6515 42.9703C27.7593 43.7249 27.5437 44.5874 27.0047 45.342C26.0883 46.6356 24.7408 47.0129 23.501 46.6356C23.501 46.6356 23.501 46.6356 23.4471 46.6895C23.9323 47.4981 23.8784 48.4683 23.3932 49.6541C22.7464 51.2712 22.3152 52.4031 22.2613 52.8883C21.7223 52.5109 21.4528 52.3492 20.9138 51.9719C20.9677 51.5946 21.345 50.5705 21.9918 49.169C22.6925 47.6059 22.5847 46.7434 21.5606 45.881C21.1294 45.5576 20.9138 45.342 20.4825 45.0186C19.135 46.6356 18.4882 47.4442 17.1406 49.0612C16.6555 48.63 16.386 48.4683 15.9009 48.0371C18.9733 44.3718 20.5364 42.593 23.6628 38.9277ZM21.1833 44.1023C21.6684 44.4796 21.884 44.6952 22.3691 45.0186C23.6088 45.9888 24.9564 45.8271 25.7649 44.6952C26.6813 43.4554 26.3039 42.2696 25.172 41.4072C24.633 40.9759 24.2557 40.7603 24.0401 40.6525C22.8542 42.0001 22.3152 42.7008 21.1833 44.1023Z"/><path fill="#fff" d="M33.2033 52.9421C31.694 52.1336 30.9394 51.7024 29.4301 50.84C28.5138 52.3492 28.0826 53.1038 27.1662 54.6131C28.945 55.6911 29.8074 56.1763 31.6401 57.0926C31.4245 57.5777 31.2628 57.7933 31.0472 58.2784C28.6755 57.0387 27.4897 56.3919 25.1719 54.9365C27.7592 50.84 29.0528 48.7917 31.5862 44.6413C33.4728 45.8271 34.3891 46.3661 36.3296 47.3903C36.114 47.8754 35.9522 48.091 35.7366 48.5761C34.2274 47.8215 33.4728 47.3903 32.0174 46.5278C31.2089 47.8215 30.8316 48.5222 30.023 49.8158C31.4784 50.6783 32.233 51.1095 33.7423 51.918C33.5806 52.2414 33.4728 52.5109 33.2033 52.9421Z"/><path fill="#fff" d="M35.09 58.0628C35.5212 58.7097 36.2758 59.4643 37.246 59.8416C38.6475 60.4345 39.8333 59.9494 40.2645 58.8175C40.6419 57.7394 40.3184 56.9309 39.1865 55.7989C37.839 54.4514 37.246 53.05 37.9468 51.5407C38.7553 49.8158 40.4802 49.1151 42.3128 49.8158C43.283 50.1931 43.876 50.7322 44.1455 51.1634C43.8221 51.5946 43.6604 51.8102 43.3909 52.2414C43.1752 51.918 42.6362 51.3251 41.7738 51.0017C40.4802 50.4627 39.6177 51.1634 39.2943 51.918C38.8631 52.9421 39.1865 53.7507 40.3724 54.8826C41.7738 56.2841 42.3667 57.5238 41.7738 59.1948C41.127 60.9735 39.2943 62.0516 36.707 60.9735C35.629 60.5423 34.6588 59.6799 34.2275 59.0331C34.551 58.6557 34.7127 58.4401 35.09 58.0628Z"/><path fill="#fff" d="M49.1585 53.7507C47.9726 53.4273 47.3797 53.2656 46.1938 52.8883C46.3556 52.4031 46.4634 52.1336 46.6251 51.5946C49.428 52.5109 50.8833 52.8883 53.7401 53.4273C53.6323 53.9663 53.5784 54.2358 53.4706 54.7209C52.2848 54.4514 51.6379 54.3436 50.4521 54.0202C49.428 58.2245 48.8889 60.3267 47.8109 64.4771C47.218 64.3154 46.8946 64.2615 46.3017 64.0998C47.4875 60.0033 48.0265 57.9011 49.1585 53.7507Z"/><path fill="#fff" d="M55.465 62.2133C54.7642 63.6686 54.4408 64.3693 53.6862 65.7708C53.0933 65.663 52.7699 65.6091 52.123 65.5013C54.6025 61.0274 55.7345 58.7635 57.7288 54.128C58.3218 54.2358 58.6452 54.2358 59.2381 54.3436C59.9927 59.3026 60.5317 61.782 61.8254 66.741C61.1786 66.6871 60.8551 66.6871 60.2083 66.6332C59.831 65.0701 59.6693 64.3154 59.3459 62.6984C57.8366 62.5367 57.0281 62.4289 55.465 62.2133ZM59.2381 61.4586C58.9686 60.0033 58.8069 59.3026 58.5913 57.9011C58.4296 57.0926 58.3757 56.338 58.3218 55.6373C58.3218 55.6373 58.3218 55.6373 58.2679 55.6373C58.0523 56.338 57.7827 57.0387 57.4593 57.7394C56.8664 59.087 56.543 59.7338 55.9501 61.0813C57.2437 61.243 57.8906 61.2969 59.2381 61.4586Z"/><path fill="#fff" d="M66.4068 54.7748C66.4068 57.6316 66.3529 59.087 66.3529 61.9438C66.3529 64.6389 67.4848 65.8247 68.9941 65.7708C70.7189 65.7169 71.7431 64.4772 71.5275 61.7821C71.3658 58.9253 71.258 57.4699 71.0963 54.6131C71.6353 54.5592 71.8509 54.5592 72.3899 54.5053C72.6055 57.3082 72.7133 58.7097 72.9828 61.5665C73.3062 65.2857 71.5275 66.9567 68.9941 67.0106C66.6224 67.0645 64.8436 65.6091 64.9514 61.836C65.0053 58.9792 65.0592 57.5777 65.167 54.7209C65.6522 54.7748 65.9217 54.7748 66.4068 54.7748Z"/><path fill="#fff" d="M76.0552 54.2897C76.6481 54.0202 77.5644 53.8046 78.4269 53.6429C79.7744 53.4273 80.6907 53.5351 81.4454 54.0741C82.0383 54.5053 82.5234 55.206 82.739 56.1224C83.1163 57.6855 82.4695 58.9253 81.4454 59.5721V59.626C82.3078 59.7877 83.0085 60.4884 83.5476 61.6742C84.2483 63.2374 84.8412 64.3154 85.1646 64.6928C84.5717 64.8545 84.2483 64.9084 83.6553 65.0162C83.3858 64.7467 82.9007 63.7764 82.3078 62.3211C81.661 60.7579 80.9603 60.2728 79.6666 60.4345C79.1276 60.5423 78.8581 60.5962 78.373 60.6501C78.6964 62.7523 78.8581 63.7764 79.1815 65.8247C78.5886 65.9325 78.2652 65.9864 77.6722 66.0403C77.0254 61.4047 76.702 59.0331 76.0552 54.2897ZM78.2113 59.5721C78.7503 59.4643 79.0737 59.4643 79.6127 59.3565C81.0681 59.087 81.8227 58.0089 81.4993 56.6614C81.1759 55.1521 80.0978 54.667 78.7503 54.8826C78.1573 54.9904 77.7261 55.1521 77.5105 55.2599C77.78 56.9848 77.9417 57.8472 78.2113 59.5721Z"/><path fill="#fff" d="M89.3151 59.6799C89.3151 61.2969 89.3151 62.0516 89.2612 63.6686C88.6683 63.8303 88.3449 63.9381 87.752 64.0998C88.0215 58.9792 88.0215 56.4458 87.8059 51.4329C88.3988 51.2173 88.6683 51.1634 89.2612 50.9478C92.1719 55.0443 93.7351 57.0387 97.077 60.9196C96.484 61.1891 96.1606 61.2969 95.5677 61.5126C94.5436 60.2728 94.0585 59.626 93.0343 58.3862C91.579 58.9792 90.8244 59.1948 89.3151 59.6799ZM92.3875 57.3621C91.5251 56.1763 91.04 55.6372 90.2314 54.4514C89.7463 53.8046 89.369 53.1578 88.9917 52.5109C88.9917 52.5109 88.9917 52.5109 88.9378 52.5109C89.0456 53.2656 89.0995 54.0202 89.1534 54.7748C89.2073 56.2302 89.2073 56.9848 89.2073 58.4401C90.501 58.0089 91.1478 57.7933 92.3875 57.3621Z"/><path fill="#fff" d="M100.311 59.5182C98.2628 55.0983 97.2387 52.9422 95.1904 48.5222C95.7294 48.3066 95.9451 48.1449 96.4841 47.9293C98.748 49.5464 99.8799 50.3549 102.359 51.7563C103.761 52.6188 105.001 53.3734 106.079 54.128C106.079 54.128 106.079 54.128 106.079 54.0741C105.108 52.7266 104.354 51.4868 103.384 49.8698C102.359 48.1449 101.82 47.2286 100.796 45.5037C101.227 45.2342 101.443 45.1264 101.874 44.8569C104.408 49.0073 105.701 51.0556 108.235 55.2061C107.696 55.5295 107.426 55.6912 106.887 56.0146C104.3 54.667 103.06 53.9663 100.688 52.4032C99.3948 51.5407 98.1011 50.6244 97.077 49.7081C97.077 49.7081 97.077 49.7081 97.0231 49.762C97.7777 51.1095 98.4245 52.4032 99.3409 54.1819C100.257 56.0685 100.688 56.9848 101.605 58.8175C101.12 59.1409 100.85 59.2487 100.311 59.5182Z"/><path fill="#fff" d="M107.48 42.7008C106.456 43.4554 105.917 43.8328 104.893 44.5335C104.569 44.1023 104.462 43.8867 104.138 43.4554C106.672 41.7306 107.911 40.8143 110.229 38.8199C110.553 39.2511 110.768 39.4128 111.092 39.844C110.121 40.7064 109.582 41.0838 108.558 41.8923C111.199 45.2881 112.547 47.013 115.188 50.4088C114.703 50.7861 114.433 51.0017 113.894 51.379C111.307 47.9293 110.067 46.2044 107.48 42.7008Z"/><path fill="#ECA06F" d="M89.2611 71.8078L82.2539 73.4249H117.236L89.2611 71.8078Z"/><path fill="#ECA06F" d="M44.9004 71.8078L51.9076 73.4249H16.9253L44.9004 71.8078Z"/><path fill="#ECA06F" d="M124.945 90.404H9.3252V91.2125H124.945V90.404Z"/><path fill="#ECA06F" d="M111.092 32.3517L124.028 46.6896C106.079 67.4418 80.4215 70.5681 66.6765 70.5681C49.8591 70.5681 26.3579 66.4177 9.32491 46.6896L22.2614 32.3517C23.6089 33.861 27.2203 37.5263 33.0956 41.2455C39.9951 45.6116 51.4223 50.7861 66.6765 50.7861C81.9307 50.7861 93.3579 45.6116 100.257 41.2455C106.133 37.5802 109.744 33.861 111.092 32.3517ZM111.092 31.2198C111.092 31.2198 95.8913 50.0854 66.6765 50.0854C37.4617 50.0854 22.2614 31.2198 22.2614 31.2198L8.30078 46.6896C27.1664 68.9511 53.6861 71.3227 66.6765 71.3227C78.8044 71.3227 106.187 68.9511 125.052 46.6896L111.092 31.2198Z"/><path stroke="#ECA06F" stroke-miterlimit="10" d="M122.572 41.4072L130.766 33.4297L118.799 31.651L116.482 19.1996L101.982 32.8907L111.738 29.3871L122.572 41.4072Z"/><path stroke="#ECA06F" stroke-miterlimit="10" d="M21.6145 29.3871L31.3168 32.8907L16.8172 19.1996L14.4994 31.651L2.5332 33.4297L10.7263 41.4072L21.6145 29.3871Z"/><path fill="#ED7D3C" d="M6.19873 80.0548C6.73775 79.947 7.43847 79.8931 8.1931 79.8931C9.54064 79.8931 10.457 80.2165 11.1038 80.8095C11.7506 81.4024 12.1279 82.2109 12.1279 83.3968C12.1279 84.5826 11.7506 85.4989 11.1038 86.1997C10.457 86.8465 9.32504 87.2238 7.92359 87.2238C7.27677 87.2238 6.73775 87.1699 6.25264 87.116V80.0548H6.19873ZM7.11506 86.3614C7.33067 86.4153 7.70799 86.4153 8.0314 86.4153C10.0258 86.4153 11.1038 85.2833 11.1038 83.3968C11.1038 81.7258 10.1336 80.6478 8.1931 80.6478C7.70798 80.6478 7.33067 80.7016 7.11506 80.7555V86.3614Z"/><path fill="#ED7D3C" d="M19.0813 83.7202H16.3323V86.3075H19.4587V87.0621H15.416V79.8931H19.2969V80.6478H16.3323V82.9116H19.1352V83.7202H19.0813Z"/><path fill="#ED7D3C" d="M22.7466 79.9471H23.6629V86.3614H26.7353V87.116H22.7466V79.9471Z"/><path fill="#ED7D3C" d="M30.8318 79.9471V87.116H29.9155V79.9471H30.8318Z"/><path fill="#ED7D3C" d="M39.5642 86.8465C39.2408 87.0082 38.5401 87.1699 37.6776 87.1699C35.6294 87.1699 34.1201 85.8762 34.1201 83.5585C34.1201 81.2946 35.6294 79.7853 37.8393 79.7853C38.7557 79.7853 39.2947 80.0009 39.5642 80.1088L39.3486 80.8634C38.9713 80.7017 38.4862 80.54 37.8932 80.54C36.2223 80.54 35.0904 81.618 35.0904 83.5046C35.0904 85.2833 36.1145 86.3614 37.8393 86.3614C38.3784 86.3614 38.9713 86.2536 39.3486 86.0379L39.5642 86.8465Z"/><path fill="#ED7D3C" d="M43.7684 79.9471V87.116H42.8521V79.9471H43.7684Z"/><path fill="#ED7D3C" d="M53.6864 83.4507C53.6864 85.9301 52.1771 87.2238 50.3445 87.2238C48.4579 87.2238 47.1104 85.7684 47.1104 83.5585C47.1104 81.2946 48.5118 79.7853 50.4523 79.7853C52.3927 79.8392 53.6864 81.2946 53.6864 83.4507ZM48.0806 83.5585C48.0806 85.0677 48.8891 86.4692 50.3445 86.4692C51.7998 86.4692 52.6622 85.1216 52.6622 83.5046C52.6622 82.1031 51.9076 80.5939 50.3984 80.5939C48.8891 80.5939 48.0806 81.9953 48.0806 83.5585Z"/><path fill="#ED7D3C" d="M57.9444 79.9471V84.2053C57.9444 85.8224 58.6451 86.4692 59.6153 86.4692C60.6934 86.4692 61.3402 85.7685 61.3402 84.2053V79.9471H62.2565V84.1514C62.2565 86.3614 61.0707 87.2777 59.5614 87.2777C58.1061 87.2777 56.9741 86.4153 56.9741 84.2053V80.001H57.9444V79.9471Z"/><path fill="#ED7D3C" d="M65.8681 85.9841C66.2994 86.2536 66.8923 86.4692 67.5391 86.4692C68.5093 86.4692 69.0484 85.9841 69.0484 85.2294C69.0484 84.5826 68.671 84.1514 67.7008 83.828C66.515 83.3968 65.8142 82.8039 65.8142 81.7797C65.8142 80.6478 66.7306 79.8393 68.132 79.8393C68.8867 79.8393 69.4257 80.001 69.6952 80.2166L69.4257 80.9712C69.2101 80.8634 68.7249 80.6478 68.0781 80.6478C67.1079 80.6478 66.7306 81.2407 66.7306 81.7258C66.7306 82.3726 67.1618 82.75 68.132 83.1273C69.3179 83.6124 69.9647 84.2053 69.9647 85.2294C69.9647 86.3614 69.1562 87.2777 67.4313 87.2777C66.7306 87.2777 65.9759 87.0621 65.5986 86.8465L65.8681 85.9841Z"/><path fill="#ED7D3C" d="M83.494 87.0621C83.1167 87.2238 82.4159 87.4394 81.5535 87.4394C79.4513 87.4394 77.8882 86.1458 77.8882 83.7202C77.8882 81.4024 79.4513 79.8393 81.7691 79.8393C82.6854 79.8393 83.2784 80.0549 83.5479 80.1627L83.3323 80.9173C82.9549 80.7556 82.4698 80.5939 81.823 80.5939C80.0982 80.5939 78.9123 81.7258 78.9123 83.6663C78.9123 85.499 79.9364 86.6309 81.7691 86.6309C82.362 86.6309 82.9549 86.5231 83.3323 86.3075L83.494 87.0621Z"/><path fill="#ED7D3C" d="M87.8062 79.8932V84.2592C87.8062 85.9302 88.5608 86.6309 89.531 86.6309C90.6091 86.6309 91.3098 85.9302 91.3098 84.2592V79.8932H92.28V84.2053C92.28 86.4692 91.0942 87.3855 89.4771 87.3855C87.9679 87.3855 86.8359 86.5231 86.8359 84.2053V79.8393H87.8062V79.8932Z"/><path fill="#ED7D3C" d="M97.1314 79.8931V87.2777H96.1611V79.8931H97.1314Z"/><path fill="#ED7D3C" d="M100.851 86.0919C101.282 86.3614 101.929 86.577 102.575 86.577C103.546 86.577 104.139 86.0379 104.139 85.3372C104.139 84.6365 103.761 84.2592 102.737 83.8819C101.551 83.4507 100.797 82.8038 100.797 81.7797C100.797 80.6478 101.767 79.7853 103.168 79.7853C103.923 79.7853 104.462 79.9471 104.785 80.1627L104.516 80.9173C104.3 80.8095 103.761 80.54 103.114 80.54C102.09 80.54 101.713 81.1329 101.713 81.6719C101.713 82.3726 102.144 82.696 103.168 83.0734C104.408 83.5585 105.055 84.1514 105.055 85.2294C105.055 86.3614 104.192 87.3316 102.468 87.3316C101.767 87.3316 100.958 87.116 100.581 86.8465L100.851 86.0919Z"/><path fill="#ED7D3C" d="M109.529 79.8931V87.2777H108.559V79.8931H109.529Z"/><path fill="#ED7D3C" d="M113.41 87.2777V79.8931H114.434L116.805 83.6124C117.344 84.4748 117.776 85.2833 118.153 86.0379C118.045 85.0677 118.045 84.1514 118.045 83.0194V79.947H118.962V87.3316H117.991L115.62 83.5584C115.081 82.7499 114.596 81.8875 114.218 81.079H114.164C114.218 81.9953 114.218 82.9116 114.218 84.1514V87.3316H113.41V87.2777Z"/><path fill="#ED7D3C" d="M126.669 83.828H123.813V86.4692H126.993V87.2777H122.842V79.8931H126.831V80.7017H123.813V83.0194H126.669V83.828Z"/><path fill="#ECA06F" d="M118.907 75.2036H15.3618V75.9582H118.907V75.2036Z"/><path fill="#ED7D3C" d="M67.6467 37.4724L68.6709 40.5448H71.8511L69.2638 42.4313L70.234 45.4498L67.6467 43.5633L65.0594 45.4498L66.0836 42.4313L63.4424 40.5448H66.6765L67.6467 37.4724Z"/><path fill="#ED7D3C" d="M78.2653 38.9277L78.966 40.976H81.1221L79.3433 42.2696L80.0441 44.3179L78.2653 43.0782L76.5404 44.3179L77.1873 42.2696L75.4624 40.976H77.6185L78.2653 38.9277Z"/><path fill="#ED7D3C" d="M86.0272 37.7958L86.5123 39.1972H87.9677L86.7818 40.0596L87.213 41.4611L86.0272 40.5987L84.8414 41.4611L85.3265 40.0596L84.1406 39.1972H85.596L86.0272 37.7958Z"/><path fill="#ED7D3C" d="M48.6734 37.7958L49.1046 39.1972H50.5599L49.3741 40.0596L49.8592 41.4611L48.6734 40.5987L47.4875 41.4611L47.9188 40.0596L46.7329 39.1972H48.1883L48.6734 37.7958Z"/><path fill="#ED7D3C" d="M56.5431 38.9277L57.2439 40.976H59.3999L57.6751 42.2696L58.3219 44.3179L56.5431 43.0782L54.8183 44.3179L55.4651 42.2696L53.7402 40.976H55.8963L56.5431 38.9277Z"/></svg>