<svg xmlns="http://www.w3.org/2000/svg" width="134" height="100" fill="none" viewBox="0 0 134 100"><path fill="#FFFAEC" d="M74.2228 10.8987C76.3789 10.7909 78.0499 9.38948 77.457 6.31707C76.864 3.24467 73.9533 2.86736 73.9533 2.86736C74.2767 3.62199 74.3307 5.13124 74.3307 5.13124C72.6597 -0.474556 67.4312 0.0105602 67.4312 0.0105602C67.4312 0.0105602 62.2027 -0.474556 60.5318 5.13124C60.5318 5.13124 60.5857 3.62199 60.9091 2.86736C60.9091 2.86736 57.9984 3.24467 57.4055 6.31707C56.8126 9.38948 58.4835 10.7909 60.6396 10.8987C62.7957 11.0065 63.4425 9.9285 63.4425 9.9285C63.4425 9.9285 62.634 11.4378 60.3701 11.5995C60.3701 11.5995 61.5559 12.5697 61.8254 14.5641C61.8254 14.5641 62.8496 15.8038 67.3773 15.8577C71.9051 15.8577 72.9292 14.5641 72.9292 14.5641C73.1987 12.5697 74.3846 11.5995 74.3846 11.5995C72.1207 11.4378 71.3122 9.9285 71.3122 9.9285C71.3122 9.9285 72.0668 11.0065 74.2228 10.8987Z"/><path fill="#FFFAEC" d="M72.9292 15.2109C71.3121 16.4507 67.9163 16.3428 67.4851 16.2889C67.0539 16.2889 63.6581 16.4507 62.041 15.2109C62.041 15.2109 62.3105 16.289 62.3105 17.0436C62.3105 17.0436 63.8198 18.445 67.539 18.2294C71.2582 18.445 72.7675 17.0436 72.7675 17.0436C72.6058 16.3429 72.9292 15.2109 72.9292 15.2109Z"/><path fill="#FFFAEC" d="M60.0467 33.8609L58.9686 34.939C58.9686 34.939 58.9686 36.9872 61.0708 37.1489L62.2027 35.9092C60.963 35.5319 60.3162 34.5078 60.0467 33.8609Z"/><path fill="#FFFAEC" d="M60.4778 33.4297C60.6935 33.8609 61.2864 35.1007 62.58 35.4241L71.8511 25.3984V23.8891H74.9236C74.9236 23.8891 87.3749 14.7797 87.3749 7.01782L60.4778 33.4297ZM82.5776 15.5343C82.0925 16.0733 81.6074 16.6124 81.1223 17.1514C80.6371 17.6904 80.0981 18.1755 79.5591 18.6606C79.0201 19.1457 78.4811 19.6309 77.942 20.116C76.864 21.0862 75.6782 21.9486 74.4923 22.8111C75.5704 21.8408 85.9195 10.3058 86.0812 9.98242C85.5961 11.3839 84.8415 12.6236 83.9791 13.8095C83.4939 14.4024 83.0088 14.9414 82.5776 15.5343Z"/><path fill="#FFFAEC" d="M74.115 33.4297L47.218 7.01782C47.218 14.7797 59.6693 23.8891 59.6693 23.8891H62.7418V25.3984L72.0129 35.4241C73.3065 35.1546 73.9533 33.8609 74.115 33.4297ZM56.7047 20.116C56.1657 19.6309 55.6267 19.1457 55.0877 18.6606C54.5487 18.1755 54.0636 17.6365 53.5245 17.1514C53.0394 16.6124 52.5543 16.0733 52.0692 15.5343C51.5841 14.9953 51.1529 14.4024 50.7216 13.8095C49.8592 12.6236 49.0507 11.3839 48.6195 9.98242C48.7812 10.3058 59.1303 21.8408 60.2084 22.8111C58.9686 22.0025 57.8367 21.0862 56.7047 20.116Z"/><path fill="#FFFAEC" d="M74.5463 33.861C74.2768 34.4539 73.6299 35.478 72.4441 35.9092L73.576 37.149C75.6782 36.9873 75.6782 34.939 75.6782 34.939L74.5463 33.861Z"/><path fill="#FFFAEC" d="M53.5245 97.8424H52.0153V99.2439H53.6862V99.6751H51.5302V95.7942H53.6323V96.2254H52.0692V97.4651H53.5784V97.8424H53.5245Z"/><path fill="#FFFAEC" d="M55.4111 99.0283C55.6267 99.19 55.9501 99.2978 56.3274 99.2978C56.8125 99.2978 57.1359 99.0283 57.1359 98.651C57.1359 98.2737 56.9203 98.0581 56.3813 97.8964C55.7345 97.6808 55.3572 97.3573 55.3572 96.8183C55.3572 96.2254 55.8423 95.7942 56.5969 95.7942C56.9742 95.7942 57.2977 95.902 57.4594 96.0098L57.2977 96.441C57.1898 96.3871 56.9203 96.2793 56.543 96.2793C56.004 96.2793 55.8423 96.6027 55.8423 96.8722C55.8423 97.2495 56.0579 97.4112 56.5969 97.6269C57.2437 97.8964 57.5672 98.2198 57.5672 98.7588C57.5672 99.3517 57.1359 99.8907 56.2196 99.8907C55.8423 99.8907 55.465 99.7829 55.2494 99.6212L55.4111 99.0283Z"/><path fill="#FFFAEC" d="M60.1545 96.2254H58.9686V95.7942H61.8254V96.2254H60.6396V99.6751H60.1545V96.2254V96.2254Z"/><path fill="#FFFAEC" d="M63.4424 95.8481C63.7659 95.7942 64.0893 95.7942 64.5205 95.7942C65.2212 95.7942 65.7602 95.9559 66.0836 96.2793C66.407 96.6027 66.6227 97.0339 66.6227 97.6808C66.6227 98.3276 66.407 98.8127 66.0836 99.19C65.7063 99.5673 65.1134 99.729 64.3588 99.729C63.9815 99.729 63.712 99.729 63.4424 99.6751V95.8481V95.8481ZM63.9276 99.2439C64.0354 99.2439 64.251 99.2978 64.4127 99.2978C65.4907 99.2978 66.0836 98.7049 66.0836 97.6808C66.0836 96.7644 65.5985 96.1715 64.5205 96.1715C64.251 96.1715 64.0893 96.1715 63.9276 96.2254V99.2439Z"/><path fill="#FFFAEC" d="M71.6895 96.3871L71.0426 96.7105L70.9348 96.3332L71.7433 95.902H72.1746V99.6212H71.6895V96.3871V96.3871Z"/><path fill="#FFFAEC" d="M74.9236 99.2978C75.0314 99.2978 75.1392 99.2978 75.3548 99.2978C75.6243 99.2439 75.9477 99.1361 76.1094 98.9205C76.3789 98.7049 76.5406 98.3815 76.5945 97.9503C76.3789 98.2198 76.1094 98.3276 75.7321 98.3276C75.0853 98.3276 74.6541 97.8424 74.6541 97.1956C74.6541 96.4949 75.1392 95.8481 75.9477 95.8481C76.7023 95.8481 77.1874 96.441 77.1874 97.4112C77.1874 98.2198 76.9179 98.8127 76.5406 99.1361C76.2711 99.4056 75.8399 99.5673 75.4626 99.6212C75.3009 99.6751 75.1392 99.6751 74.9775 99.6751V99.2978H74.9236ZM75.1392 97.1417C75.1392 97.6269 75.4087 97.9503 75.8399 97.9503C76.1633 97.9503 76.4328 97.7886 76.5945 97.5729C76.6484 97.519 76.6484 97.4651 76.6484 97.4112C76.6484 96.7644 76.4328 96.2793 75.8938 96.2793C75.4626 96.2254 75.1392 96.6027 75.1392 97.1417Z"/><path fill="#FFFAEC" d="M79.0201 99.2978C79.1279 99.2978 79.2357 99.2978 79.4513 99.2978C79.7208 99.2439 80.0443 99.1361 80.206 98.9205C80.4755 98.7049 80.6372 98.3815 80.6911 97.9503C80.4755 98.2198 80.206 98.3276 79.8286 98.3276C79.1818 98.3276 78.7506 97.8424 78.7506 97.1956C78.7506 96.4949 79.2357 95.8481 80.0443 95.8481C80.7989 95.8481 81.284 96.441 81.284 97.4112C81.284 98.2198 81.0145 98.8127 80.6372 99.1361C80.3677 99.4056 79.9364 99.5673 79.5591 99.6212C79.3974 99.6751 79.2357 99.6751 79.074 99.6751V99.2978H79.0201ZM79.2357 97.1417C79.2357 97.6269 79.5052 97.9503 79.9365 97.9503C80.2599 97.9503 80.5294 97.7886 80.6911 97.5729C80.745 97.519 80.745 97.4651 80.745 97.4112C80.745 96.7644 80.5294 96.2793 79.9904 96.2793C79.5052 96.2254 79.2357 96.6027 79.2357 97.1417Z"/><path fill="#FFFAEC" d="M85.3266 97.7346C85.3266 99.0283 84.8415 99.6751 84.033 99.6751C83.2783 99.6751 82.7932 98.9744 82.7932 97.7346C82.7932 96.4949 83.3322 95.7942 84.0869 95.7942C84.8415 95.8481 85.3266 96.5488 85.3266 97.7346ZM83.2783 97.7885C83.2783 98.7588 83.6018 99.2978 84.033 99.2978C84.572 99.2978 84.7876 98.7049 84.7876 97.7346C84.7876 96.8183 84.572 96.2254 84.033 96.2254C83.6018 96.2254 83.2783 96.7644 83.2783 97.7885Z"/><path fill="#ECA06F" d="M88.3991 16.8818H91.3637V17.4748H89.0998V19.3074H91.202V19.9003H89.0998V22.3798H88.3991V16.8818Z"/><path fill="#ECA06F" d="M97.1312 19.5769C97.1312 21.4635 95.9992 22.4876 94.5439 22.4876C93.0885 22.4876 92.0644 21.3557 92.0644 19.6847C92.0644 17.9599 93.1424 16.774 94.5978 16.774C96.1609 16.774 97.1312 17.906 97.1312 19.5769ZM92.819 19.6308C92.819 20.8167 93.4658 21.8408 94.5978 21.8408C95.7297 21.8408 96.3765 20.8167 96.3765 19.5769C96.3765 18.4989 95.7836 17.3131 94.5978 17.3131C93.4119 17.367 92.819 18.445 92.819 19.6308Z"/><path fill="#ECA06F" d="M102.737 19.5769C102.737 21.4635 101.605 22.4876 100.204 22.4876C98.7482 22.4876 97.7241 21.3557 97.7241 19.6847C97.7241 17.9599 98.8021 16.774 100.311 16.774C101.767 16.774 102.737 17.906 102.737 19.5769ZM98.4787 19.6308C98.4787 20.8167 99.1255 21.8408 100.257 21.8408C101.389 21.8408 102.036 20.8167 102.036 19.5769C102.036 18.4989 101.443 17.3131 100.257 17.3131C99.0716 17.367 98.4787 18.445 98.4787 19.6308Z"/><path fill="#ECA06F" d="M103.707 16.9357C104.138 16.8818 104.677 16.8279 105.216 16.8279C106.24 16.8279 106.941 17.0436 107.426 17.5287C107.911 17.9599 108.181 18.6067 108.181 19.523C108.181 20.4394 107.911 21.1401 107.372 21.6791C106.833 22.2181 106.025 22.4876 104.947 22.4876C104.462 22.4876 104.031 22.4876 103.653 22.4337V16.9357H103.707ZM104.408 21.8408C104.57 21.8947 104.839 21.8947 105.109 21.8947C106.618 21.8947 107.48 21.0323 107.48 19.5769C107.48 18.2833 106.726 17.4748 105.27 17.4748C104.893 17.4748 104.623 17.5287 104.462 17.5287V21.8408H104.408Z"/><path fill="#ECA06F" d="M33.5809 22.1103C33.2575 22.2181 32.6107 22.4337 31.9099 22.4337C31.1014 22.4337 30.4007 22.2181 29.8617 21.6791C29.3766 21.194 29.1071 20.4933 29.1071 19.6308C29.1071 18.0138 30.239 16.774 32.0717 16.774C32.7185 16.774 33.2036 16.9358 33.4731 17.0436L33.3114 17.6365C33.0419 17.5287 32.6646 17.4209 32.0717 17.4209C30.7241 17.4209 29.8617 18.2294 29.8617 19.6308C29.8617 21.0323 30.7241 21.8408 31.9639 21.8408C32.449 21.8408 32.7724 21.7869 32.9341 21.6791V20.0621H31.8021V19.4691H33.6348V22.1103H33.5809Z"/><path fill="#ECA06F" d="M39.3484 19.5769C39.3484 21.4635 38.2164 22.4876 36.815 22.4876C35.3596 22.4876 34.3355 21.3557 34.3355 19.6847C34.3355 17.9599 35.4136 16.774 36.8689 16.774C38.3782 16.774 39.3484 17.906 39.3484 19.5769ZM35.0901 19.6308C35.0901 20.8167 35.737 21.8408 36.8689 21.8408C38.0008 21.8408 38.6477 20.8167 38.6477 19.5769C38.6477 18.4989 38.0547 17.3131 36.8689 17.3131C35.6831 17.367 35.0901 18.445 35.0901 19.6308Z"/><path fill="#ECA06F" d="M45.0081 19.5769C45.0081 21.4635 43.8761 22.4876 42.4208 22.4876C40.9654 22.4876 39.9413 21.3557 39.9413 19.6847C39.9413 17.9599 41.0193 16.774 42.5286 16.774C44.0378 16.774 45.0081 17.906 45.0081 19.5769ZM40.7498 19.6308C40.7498 20.8167 41.3966 21.8408 42.5286 21.8408C43.6605 21.8408 44.3073 20.8167 44.3073 19.5769C44.3073 18.4989 43.7144 17.3131 42.5286 17.3131C41.3427 17.367 40.7498 18.445 40.7498 19.6308Z"/><path fill="#ECA06F" d="M45.9244 16.9357C46.3556 16.8818 46.8946 16.8279 47.4336 16.8279C48.4578 16.8279 49.1585 17.0436 49.6436 17.5287C50.1287 17.9599 50.3982 18.6067 50.3982 19.523C50.3982 20.4394 50.1287 21.1401 49.5897 21.6791C49.0507 22.2181 48.2422 22.4876 47.1641 22.4876C46.679 22.4876 46.2478 22.4876 45.8705 22.4337V16.9357H45.9244ZM46.6251 21.8408C46.7868 21.8947 47.0563 21.8947 47.3258 21.8947C48.8351 21.8947 49.6975 21.0323 49.6975 19.5769C49.6975 18.2833 48.9429 17.4748 47.4875 17.4748C47.1102 17.4748 46.8407 17.5287 46.679 17.5287V21.8408H46.6251Z"/><path fill="#FFFAEC" d="M1.45535 84.2053C2.25911 84.2053 2.9107 83.5537 2.9107 82.7499C2.9107 81.9461 2.25911 81.2946 1.45535 81.2946C0.65158 81.2946 0 81.9461 0 82.7499C0 83.5537 0.65158 84.2053 1.45535 84.2053Z"/><path fill="#FFFAEC" d="M132.545 84.2053C133.348 84.2053 134 83.5537 134 82.7499C134 81.9461 133.348 81.2946 132.545 81.2946C131.741 81.2946 131.089 81.9461 131.089 82.7499C131.089 83.5537 131.741 84.2053 132.545 84.2053Z"/><path fill="#FFFAEC" d="M66.5688 48.5222C37.4079 48.5222 22.2075 29.7105 22.2075 29.7105L8.24695 45.1803C27.0587 67.3879 53.5784 69.8135 66.5688 69.8135C78.6967 69.8135 106.025 67.4418 124.891 45.1803L110.93 29.7105C110.93 29.6566 95.7297 48.5222 66.5688 48.5222Z"/><path fill="#FFFAEC" d="M122.465 39.844L130.604 31.9205L118.638 30.1417L116.374 17.6904L101.875 31.3275L111.577 27.8239L122.465 39.844Z"/><path fill="#FFFAEC" d="M21.5607 27.8239L31.2631 31.3275L16.8174 17.6904L14.4996 30.1417L2.53339 31.9205L10.7265 39.844L21.5607 27.8239Z"/><path fill="#010C19" d="M23.6629 38.9277C24.3098 39.2511 25.1183 39.7901 25.819 40.383C26.951 41.2994 27.49 42.054 27.6517 42.9703C27.7595 43.7249 27.5439 44.5874 27.0049 45.342C26.0885 46.6356 24.741 47.0129 23.5012 46.6356C23.5012 46.6356 23.5012 46.6356 23.4473 46.6895C23.9324 47.4981 23.8785 48.4683 23.3934 49.6541C22.7466 51.2712 22.3154 52.4031 22.2615 52.8883C21.7225 52.5109 21.453 52.3492 20.9139 51.9719C20.9678 51.5946 21.3452 50.5705 21.992 49.169C22.6927 47.6059 22.5849 46.7434 21.5608 45.881C21.1295 45.5576 20.9139 45.342 20.4827 45.0186C19.1352 46.6356 18.4884 47.4442 17.1408 49.0612C16.6557 48.63 16.3862 48.4683 15.9011 48.0371C18.9735 44.3718 20.5366 42.593 23.6629 38.9277ZM21.1834 44.1023C21.6686 44.4796 21.8842 44.6952 22.3693 45.0186C23.609 45.9888 24.9566 45.8271 25.7651 44.6952C26.6814 43.4554 26.3041 42.2696 25.1722 41.4072C24.6332 40.9759 24.2559 40.7603 24.0402 40.6525C22.8544 42.0001 22.3154 42.7008 21.1834 44.1023Z"/><path fill="#010C19" d="M33.2036 52.9422C31.6944 52.1336 30.9397 51.7024 29.4305 50.84C28.5142 52.3493 28.0829 53.1039 27.1666 54.6131C28.9454 55.6912 29.8078 56.1763 31.6405 57.0926C31.4249 57.5777 31.2632 57.7933 31.0475 58.2785C28.6759 57.0387 27.49 56.3919 25.1722 54.9365C27.7595 50.84 29.0532 48.7917 31.5866 44.6413C33.4731 45.8271 34.3895 46.3662 36.3299 47.3903C36.1143 47.8754 35.9526 48.091 35.737 48.5761C34.2278 47.8215 33.4731 47.3903 32.0178 46.5279C31.2093 47.8215 30.8319 48.5222 30.0234 49.8159C31.4788 50.6783 32.2334 51.1095 33.7426 51.918C33.5809 52.2415 33.4731 52.511 33.2036 52.9422Z"/><path fill="#010C19" d="M35.0902 58.0628C35.5214 58.7097 36.276 59.4643 37.2462 59.8416C38.6477 60.4345 39.8335 59.9494 40.2647 58.8175C40.642 57.7394 40.3186 56.9309 39.1867 55.7989C37.8391 54.4514 37.2462 53.05 37.947 51.5407C38.7555 49.8158 40.4803 49.1151 42.313 49.8158C43.2832 50.1931 43.8762 50.7322 44.1457 51.1634C43.8223 51.5946 43.6605 51.8102 43.391 52.2414C43.1754 51.918 42.6364 51.3251 41.774 51.0017C40.4803 50.4627 39.6179 51.1634 39.2945 51.918C38.8633 52.9421 39.1867 53.7507 40.3725 54.8826C41.774 56.2841 42.3669 57.5238 41.774 59.1948C41.1272 60.9735 39.2945 62.0516 36.7072 60.9735C35.6292 60.5423 34.6589 59.6799 34.2277 59.0331C34.5511 58.6557 34.7128 58.4401 35.0902 58.0628Z"/><path fill="#010C19" d="M49.1585 53.7507C47.9727 53.4273 47.3798 53.2656 46.1939 52.8883C46.3556 52.4031 46.4634 52.1336 46.6251 51.5946C49.428 52.5109 50.8834 52.8883 53.7402 53.4273C53.6324 53.9663 53.5785 54.2358 53.4707 54.7209C52.2848 54.4514 51.638 54.3436 50.4522 54.0202C49.428 58.2245 48.889 60.3267 47.811 64.4771C47.218 64.3154 46.8946 64.2615 46.3017 64.0998C47.4876 60.0033 48.0266 57.9011 49.1585 53.7507Z"/><path fill="#010C19" d="M55.465 62.2133C54.7642 63.6686 54.4408 64.3693 53.6862 65.7708C53.0933 65.663 52.7699 65.6091 52.123 65.5013C54.6025 61.0274 55.7345 58.7635 57.7288 54.128C58.3218 54.2358 58.6452 54.2358 59.2381 54.3436C59.9927 59.3026 60.5317 61.782 61.8254 66.741C61.1786 66.6871 60.8551 66.6871 60.2083 66.6332C59.831 65.0701 59.6693 64.3154 59.3459 62.6984C57.8366 62.5367 57.0281 62.4289 55.465 62.2133ZM59.2381 61.4586C58.9686 60.0033 58.8069 59.3026 58.5913 57.9011C58.4296 57.0926 58.3757 56.338 58.3218 55.6373C58.3218 55.6373 58.3218 55.6373 58.2679 55.6373C58.0523 56.338 57.7827 57.0387 57.4593 57.7394C56.8664 59.087 56.543 59.7338 55.9501 61.0813C57.2437 61.243 57.8906 61.2969 59.2381 61.4586Z"/><path fill="#010C19" d="M66.4071 54.7748C66.4071 57.6316 66.3532 59.087 66.3532 61.9438C66.3532 64.6389 67.4851 65.8247 68.9944 65.7708C70.7192 65.7169 71.7434 64.4772 71.5278 61.7821C71.3661 58.9253 71.2583 57.4699 71.0966 54.6131C71.6356 54.5592 71.8512 54.5592 72.3902 54.5053C72.6058 57.3082 72.7136 58.7097 72.9831 61.5665C73.3065 65.2857 71.5278 66.9567 68.9944 67.0106C66.6227 67.0645 64.8439 65.6091 64.9517 61.836C65.0056 58.9792 65.0595 57.5777 65.1673 54.7209C65.6525 54.7748 65.922 54.7748 66.4071 54.7748Z"/><path fill="#010C19" d="M76.0555 54.2897C76.6485 54.0202 77.5648 53.8046 78.4272 53.6429C79.7748 53.4273 80.6911 53.5351 81.4457 54.0741C82.0387 54.5053 82.5238 55.206 82.7394 56.1224C83.1167 57.6855 82.4699 58.9253 81.4457 59.5721V59.626C82.3082 59.7877 83.0089 60.4884 83.5479 61.6742C84.2486 63.2374 84.8416 64.3154 85.165 64.6928C84.5721 64.8545 84.2486 64.9084 83.6557 65.0162C83.3862 64.7467 82.9011 63.7764 82.3082 62.3211C81.6613 60.7579 80.9606 60.2728 79.667 60.4345C79.128 60.5423 78.8584 60.5962 78.3733 60.6501C78.6967 62.7523 78.8584 63.7764 79.1819 65.8247C78.5889 65.9325 78.2655 65.9864 77.6726 66.0403C77.0258 61.4047 76.7024 59.0331 76.0555 54.2897ZM78.2116 59.5721C78.7506 59.4643 79.0741 59.4643 79.6131 59.3565C81.0684 59.087 81.823 58.0089 81.4996 56.6614C81.1762 55.1521 80.0982 54.667 78.7506 54.8826C78.1577 54.9904 77.7265 55.1521 77.5109 55.2599C77.7804 56.9848 77.9421 57.8472 78.2116 59.5721Z"/><path fill="#010C19" d="M89.3154 59.6799C89.3154 61.2969 89.3154 62.0516 89.2615 63.6686C88.6686 63.8303 88.3452 63.9381 87.7523 64.0998C88.0218 58.9792 88.0218 56.4458 87.8062 51.4329C88.3991 51.2173 88.6686 51.1634 89.2615 50.9478C92.1722 55.0443 93.7354 57.0387 97.0773 60.9196C96.4843 61.1891 96.1609 61.2969 95.568 61.5126C94.5439 60.2728 94.0588 59.626 93.0346 58.3862C91.5793 58.9792 90.8247 59.1948 89.3154 59.6799ZM92.3878 57.3621C91.5254 56.1763 91.0403 55.6372 90.2317 54.4514C89.7466 53.8046 89.3693 53.1578 88.992 52.5109C88.992 52.5109 88.992 52.5109 88.9381 52.5109C89.0459 53.2656 89.0998 54.0202 89.1537 54.7748C89.2076 56.2302 89.2076 56.9848 89.2076 58.4401C90.5013 58.0089 91.1481 57.7933 92.3878 57.3621Z"/><path fill="#010C19" d="M100.311 59.5182C98.2631 55.0983 97.2389 52.9422 95.1907 48.5222C95.7297 48.3066 95.9453 48.1449 96.4843 47.9293C98.7482 49.5464 99.8801 50.3549 102.36 51.7563C103.761 52.6188 105.001 53.3734 106.079 54.128C106.079 54.128 106.079 54.128 106.079 54.0741C105.109 52.7266 104.354 51.4868 103.384 49.8698C102.36 48.1449 101.821 47.2286 100.796 45.5037C101.228 45.2342 101.443 45.1264 101.875 44.8569C104.408 49.0073 105.702 51.0556 108.235 55.2061C107.696 55.5295 107.426 55.6912 106.887 56.0146C104.3 54.667 103.06 53.9663 100.689 52.4032C99.395 51.5407 98.1014 50.6244 97.0772 49.7081C97.0772 49.7081 97.0773 49.7081 97.0234 49.762C97.778 51.1095 98.4248 52.4032 99.3411 54.1819C100.257 56.0685 100.689 56.9848 101.605 58.8175C101.12 59.1409 100.85 59.2487 100.311 59.5182Z"/><path fill="#010C19" d="M107.48 42.7008C106.456 43.4554 105.917 43.8328 104.893 44.5335C104.57 44.1023 104.462 43.8867 104.138 43.4554C106.672 41.7306 107.912 40.8143 110.229 38.8199C110.553 39.2511 110.768 39.4128 111.092 39.844C110.122 40.7064 109.583 41.0838 108.558 41.8923C111.2 45.2881 112.547 47.013 115.188 50.4088C114.703 50.7861 114.434 51.0017 113.895 51.379C111.307 47.9293 110.068 46.2044 107.48 42.7008Z"/><path fill="#ECA06F" d="M89.2614 71.8078L82.2542 73.4249H117.236L89.2614 71.8078Z"/><path fill="#ECA06F" d="M44.9002 71.8078L51.9075 73.4249H16.9252L44.9002 71.8078Z"/><path fill="#ECA06F" d="M124.944 90.404H9.32501V91.2125H124.944V90.404Z"/><path fill="#ECA06F" d="M111.092 32.3517L124.028 46.6896C106.079 67.4418 80.4216 70.5681 66.6766 70.5681C49.8592 70.5681 26.358 66.4177 9.32504 46.6896L22.2615 32.3517C23.609 33.861 27.2205 37.5263 33.0958 41.2455C39.9952 45.6116 51.4224 50.7862 66.6766 50.7862C81.9308 50.7862 93.358 45.6116 100.257 41.2455C106.133 37.5802 109.744 33.861 111.092 32.3517ZM111.092 31.2198C111.092 31.2198 95.8914 50.0854 66.6766 50.0854C37.4618 50.0854 22.2615 31.2198 22.2615 31.2198L8.3009 46.6896C27.1666 68.9511 53.6863 71.3228 66.6766 71.3228C78.8045 71.3228 106.187 68.9511 125.052 46.6896L111.092 31.2198Z"/><path stroke="#ECA06F" stroke-miterlimit="10" d="M122.573 41.4072L130.766 33.4297L118.8 31.651L116.482 19.1996L101.982 32.8907L111.739 29.3871L122.573 41.4072Z"/><path stroke="#ECA06F" stroke-miterlimit="10" d="M21.6146 29.3871L31.317 32.8907L16.8174 19.1996L14.4996 31.651L2.53339 33.4297L10.7265 41.4072L21.6146 29.3871Z"/><path fill="#FFFAEC" d="M6.19867 80.0549C6.73769 79.9471 7.43841 79.8932 8.19304 79.8932C9.54058 79.8932 10.4569 80.2166 11.1037 80.8095C11.7506 81.4024 12.1279 82.2109 12.1279 83.3968C12.1279 84.5826 11.7506 85.499 11.1037 86.1997C10.4569 86.8465 9.32497 87.2238 7.92353 87.2238C7.2767 87.2238 6.73769 87.1699 6.25257 87.116V80.0549H6.19867ZM7.115 86.3614C7.33061 86.4153 7.70793 86.4153 8.03134 86.4153C10.0257 86.4153 11.1037 85.2834 11.1037 83.3968C11.1037 81.7258 10.1335 80.6478 8.19304 80.6478C7.70792 80.6478 7.33061 80.7017 7.115 80.7556V86.3614V86.3614Z"/><path fill="#FFFAEC" d="M19.0812 83.7202H16.3322V86.3075H19.4585V87.0621H15.4159V79.8932H19.2968V80.6478H16.3322V82.9117H19.1351V83.7202H19.0812Z"/><path fill="#FFFAEC" d="M22.7466 79.9471H23.6629V86.3614H26.7353V87.116H22.7466V79.9471V79.9471Z"/><path fill="#FFFAEC" d="M30.8318 79.9471V87.116H29.9155V79.9471H30.8318Z"/><path fill="#FFFAEC" d="M39.564 86.8465C39.2406 87.0082 38.5398 87.1699 37.6774 87.1699C35.6291 87.1699 34.1199 85.8762 34.1199 83.5585C34.1199 81.2946 35.6291 79.7853 37.8391 79.7853C38.7554 79.7853 39.2945 80.0009 39.564 80.1088L39.3484 80.8634C38.971 80.7017 38.4859 80.54 37.893 80.54C36.222 80.54 35.0901 81.618 35.0901 83.5046C35.0901 85.2833 36.1142 86.3614 37.8391 86.3614C38.3781 86.3614 38.971 86.2536 39.3484 86.0379L39.564 86.8465Z"/><path fill="#FFFAEC" d="M43.7683 79.9471V87.116H42.852V79.9471H43.7683Z"/><path fill="#FFFAEC" d="M53.6863 83.4507C53.6863 85.9301 52.177 87.2238 50.3443 87.2238C48.4578 87.2238 47.1102 85.7684 47.1102 83.5585C47.1102 81.2946 48.5117 79.7853 50.4521 79.7853C52.3926 79.8392 53.6863 81.2946 53.6863 83.4507ZM48.0805 83.5585C48.0805 85.0677 48.889 86.4692 50.3443 86.4692C51.7997 86.4692 52.6621 85.1216 52.6621 83.5046C52.6621 82.1031 51.9075 80.5939 50.3982 80.5939C48.889 80.5939 48.0805 81.9953 48.0805 83.5585Z"/><path fill="#FFFAEC" d="M57.9445 79.9471V84.2053C57.9445 85.8224 58.6452 86.4692 59.6154 86.4692C60.6935 86.4692 61.3403 85.7685 61.3403 84.2053V79.9471H62.2566V84.1514C62.2566 86.3614 61.0708 87.2777 59.5615 87.2777C58.1062 87.2777 56.9742 86.4153 56.9742 84.2053V80.001H57.9445V79.9471Z"/><path fill="#FFFAEC" d="M65.868 85.9841C66.2992 86.2536 66.8922 86.4692 67.539 86.4692C68.5092 86.4692 69.0482 85.9841 69.0482 85.2294C69.0482 84.5826 68.6709 84.1514 67.7007 83.828C66.5148 83.3968 65.8141 82.8039 65.8141 81.7797C65.8141 80.6478 66.7305 79.8393 68.1319 79.8393C68.8865 79.8393 69.4256 80.001 69.6951 80.2166L69.4256 80.9712C69.2099 80.8634 68.7248 80.6478 68.078 80.6478C67.1078 80.6478 66.7305 81.2407 66.7305 81.7258C66.7305 82.3726 67.1617 82.75 68.1319 83.1273C69.3178 83.6124 69.9646 84.2053 69.9646 85.2294C69.9646 86.3614 69.156 87.2777 67.4312 87.2777C66.7305 87.2777 65.9758 87.0621 65.5985 86.8465L65.868 85.9841Z"/><path fill="#FFFAEC" d="M83.494 87.0621C83.1167 87.2238 82.4159 87.4394 81.5535 87.4394C79.4513 87.4394 77.8882 86.1458 77.8882 83.7202C77.8882 81.4024 79.4513 79.8393 81.7691 79.8393C82.6854 79.8393 83.2784 80.0549 83.5479 80.1627L83.3323 80.9173C82.9549 80.7556 82.4698 80.5939 81.823 80.5939C80.0982 80.5939 78.9123 81.7258 78.9123 83.6663C78.9123 85.499 79.9364 86.6309 81.7691 86.6309C82.362 86.6309 82.9549 86.5231 83.3323 86.3075L83.494 87.0621Z"/><path fill="#FFFAEC" d="M87.8061 79.8932V84.2592C87.8061 85.9302 88.5607 86.6309 89.5309 86.6309C90.6089 86.6309 91.3097 85.9302 91.3097 84.2592V79.8932H92.2799V84.2053C92.2799 86.4692 91.0941 87.3855 89.477 87.3855C87.9678 87.3855 86.8358 86.5231 86.8358 84.2053V79.8393H87.8061V79.8932Z"/><path fill="#FFFAEC" d="M97.1311 79.8932V87.2777H96.1608V79.8932H97.1311Z"/><path fill="#FFFAEC" d="M100.85 86.0919C101.282 86.3614 101.928 86.577 102.575 86.577C103.545 86.577 104.138 86.0379 104.138 85.3372C104.138 84.6365 103.761 84.2592 102.737 83.8819C101.551 83.4507 100.796 82.8038 100.796 81.7797C100.796 80.6478 101.767 79.7853 103.168 79.7853C103.923 79.7853 104.462 79.9471 104.785 80.1627L104.516 80.9173C104.3 80.8095 103.761 80.54 103.114 80.54C102.09 80.54 101.713 81.1329 101.713 81.6719C101.713 82.3726 102.144 82.696 103.168 83.0734C104.408 83.5585 105.055 84.1514 105.055 85.2294C105.055 86.3614 104.192 87.3316 102.467 87.3316C101.767 87.3316 100.958 87.116 100.581 86.8465L100.85 86.0919Z"/><path fill="#FFFAEC" d="M109.529 79.8932V87.2777H108.558V79.8932H109.529Z"/><path fill="#FFFAEC" d="M113.409 87.2777V79.8932H114.434L116.805 83.6124C117.344 84.4748 117.776 85.2833 118.153 86.038C118.045 85.0677 118.045 84.1514 118.045 83.0195V79.947H118.961V87.3316H117.991L115.619 83.5585C115.08 82.75 114.595 81.8875 114.218 81.079H114.164C114.218 81.9953 114.218 82.9117 114.218 84.1514V87.3316H113.409V87.2777Z"/><path fill="#FFFAEC" d="M126.669 83.828H123.813V86.4692H126.993V87.2777H122.842V79.8932H126.831V80.7017H123.813V83.0195H126.669V83.828V83.828Z"/><path fill="#ECA06F" d="M118.907 75.2036H15.362V75.9583H118.907V75.2036Z"/><path fill="#FFFAEC" d="M67.6469 37.4724L68.6711 40.5448H71.8513L69.264 42.4313L70.2342 45.4499L67.6469 43.5633L65.0596 45.4499L66.0838 42.4313L63.4426 40.5448H66.6767L67.6469 37.4724Z"/><path fill="#FFFAEC" d="M78.2655 38.9277L78.9662 40.976H81.1223L79.3435 42.2696L80.0442 44.3179L78.2655 43.0782L76.5406 44.3179L77.1874 42.2696L75.4626 40.976H77.6187L78.2655 38.9277Z"/><path fill="#FFFAEC" d="M86.0274 37.7958L86.5125 39.1973H87.9678L86.782 40.0597L87.2132 41.4611L86.0274 40.5987L84.8415 41.4611L85.3267 40.0597L84.1408 39.1973H85.5962L86.0274 37.7958Z"/><path fill="#FFFAEC" d="M48.6734 37.7958L49.1046 39.1973H50.5599L49.3741 40.0597L49.8592 41.4611L48.6734 40.5987L47.4875 41.4611L47.9188 40.0597L46.7329 39.1973H48.1883L48.6734 37.7958Z"/><path fill="#FFFAEC" d="M56.5431 38.9277L57.2438 40.976H59.3999L57.675 42.2696L58.3218 44.3179L56.5431 43.0782L54.8182 44.3179L55.465 42.2696L53.7402 40.976H55.8962L56.5431 38.9277Z"/></svg>