<svg xmlns="http://www.w3.org/2000/svg" width="19" height="23" fill="none" viewBox="0 0 19 23"><path fill="#ECA06F" d="M5.04201 0.121828L3.9262 0.432416C2.93269 0.709255 2.04543 1.24257 1.36887 1.9696C0.692315 2.69662 0.254608 3.58709 0.10727 4.53621C-0.354924 7.5098 0.678398 10.9867 3.16989 14.974C5.65515 18.9512 8.39097 21.5136 11.4022 22.6351C12.3698 22.9955 13.4289 23.0915 14.4538 22.9118C15.4787 22.732 16.4261 22.2842 17.1835 21.6214L18.027 20.8823C18.5747 20.4034 18.9156 19.757 18.9863 19.0633C19.057 18.3696 18.8527 17.6757 18.4114 17.1107L16.3012 14.4074C16.0159 14.0425 15.6141 13.7692 15.1523 13.6258C14.6904 13.4824 14.1915 13.4762 13.7256 13.608L10.5339 14.5095L10.4514 14.5239C10.0997 14.5714 9.28734 13.8682 8.2758 12.2491C7.21758 10.5553 6.99972 9.56457 7.29073 9.30862L8.91385 7.90954C9.50741 7.39831 9.91287 6.72821 10.0733 5.99326C10.2338 5.25831 10.1413 4.49538 9.80867 3.8115L8.77846 1.69634C8.46868 1.05984 7.91896 0.549143 7.23179 0.259454C6.54462 -0.0302352 5.76688 -0.07915 5.04356 0.121828H5.04201ZM7.36076 2.28588L8.38785 4.40104C8.58788 4.81118 8.64382 5.26891 8.5478 5.70994C8.45178 6.15096 8.20863 6.5531 7.85252 6.85986L6.22472 8.26039C5.18362 9.17202 5.5291 10.7278 6.92969 12.9681C8.24624 15.0761 9.44763 16.1171 10.7393 15.9359L10.9323 15.8986L14.1816 14.9826C14.3369 14.9385 14.5033 14.9405 14.6574 14.9882C14.8114 15.0359 14.9454 15.127 15.0406 15.2486L17.1509 17.9519C17.3718 18.2344 17.4742 18.5814 17.439 18.9284C17.4038 19.2754 17.2334 19.5988 16.9594 19.8384L16.1144 20.5775C15.5734 21.0506 14.8968 21.3703 14.1649 21.4985C13.433 21.6267 12.6767 21.5581 11.9858 21.3008C9.34336 20.3172 6.84565 17.9778 4.51912 14.255C2.18636 10.5237 1.24175 7.35019 1.64792 4.74039C1.75306 4.06231 2.06568 3.42611 2.54899 2.90669C3.0323 2.38727 3.66616 2.00625 4.37595 1.80849L5.49175 1.49791C5.8535 1.39747 6.24244 1.42203 6.58604 1.56701C6.92964 1.71199 7.20444 1.9675 7.3592 2.28588H7.36076Z"/></svg>