<svg width="33" height="25" viewBox="0 0 33 25" fill="none" xmlns="http://www.w3.org/2000/svg">
<path d="M8.10695 11.513C6.96113 11.5169 5.83559 11.8156 4.83864 12.3804C6.24224 8.74736 8.57018 5.54377 11.5921 3.08668C11.765 2.94429 11.9082 2.76924 12.0134 2.57153C12.1187 2.37381 12.1839 2.1573 12.2055 1.93436C12.2271 1.71142 12.2045 1.48641 12.1392 1.27218C12.0738 1.05795 11.9668 0.858697 11.8244 0.685797C11.6821 0.512896 11.507 0.369733 11.3093 0.264484C11.1116 0.159235 10.8951 0.0939593 10.6721 0.0723842C10.4492 0.0508091 10.2242 0.0733579 10.0099 0.138742C9.79571 0.204125 9.59646 0.311064 9.42356 0.453452C3.22773 5.48757 0.470581 12.4579 0.470581 16.7795C0.481257 18.3075 0.936616 19.7994 1.78106 21.0729C2.62551 22.3465 3.8225 23.3466 5.22588 23.9512C6.13413 24.3911 7.12876 24.6239 8.13793 24.6327C9.02619 24.6759 9.91397 24.5382 10.7474 24.228C11.5809 23.9178 12.3427 23.4416 12.9866 22.8282C13.6306 22.2149 14.1432 21.4771 14.4935 20.6597C14.8438 19.8422 15.0244 18.9622 15.0244 18.0729C15.0244 17.1835 14.8438 16.3035 14.4935 15.4861C14.1432 14.6686 13.6306 13.9309 12.9866 13.3175C12.3427 12.7041 11.5809 12.2279 10.7474 11.9177C9.91397 11.6075 9.02619 11.4698 8.13793 11.513H8.10695Z" fill="#ECA06F"/>
<path d="M25.3624 11.5124C24.2164 11.5149 23.0905 11.8137 22.0941 12.3798C23.4971 8.75054 25.8189 5.54802 28.832 3.08606C29.0206 2.95012 29.1794 2.77702 29.2986 2.57742C29.4178 2.37782 29.4949 2.15594 29.5251 1.92543C29.5554 1.69493 29.5381 1.46067 29.4744 1.23708C29.4107 1.0135 29.302 0.805309 29.1548 0.625332C29.0076 0.445354 28.8252 0.297395 28.6187 0.190562C28.4122 0.0837279 28.1861 0.0202801 27.9542 0.00412103C27.7222 -0.012038 27.4895 0.019434 27.2702 0.0966013C27.0509 0.173769 26.8497 0.294998 26.679 0.452829C20.4832 5.48694 17.726 12.4573 17.726 16.7789C17.7334 18.2896 18.1754 19.7663 18.9994 21.0325C19.8235 22.2987 20.9946 23.301 22.3729 23.9196C23.3041 24.3724 24.3269 24.6056 25.3624 24.6011C26.2506 24.6443 27.1384 24.5066 27.9719 24.1964C28.8054 23.8862 29.5672 23.41 30.2111 22.7966C30.855 22.1833 31.3677 21.4455 31.7179 20.628C32.0682 19.8106 32.2488 18.9306 32.2488 18.0413C32.2488 17.1519 32.0682 16.2719 31.7179 15.4545C31.3677 14.637 30.855 13.8993 30.2111 13.2859C29.5672 12.6725 28.8054 12.1963 27.9719 11.8861C27.1384 11.5759 26.2506 11.4382 25.3624 11.4814V11.5124Z" fill="#ECA06F"/>
</svg>
