<svg xmlns="http://www.w3.org/2000/svg" width="62" height="45" fill="none" viewBox="0 0 62 45"><path stroke="#E8681D" stroke-width="2" d="M1.25312 33.1067L1.2418 33.1092C1.19827 32.7789 1.16319 32.4475 1.13659 32.1154L1.13581 32.1056L1.13483 32.0958C1.01061 30.8532 0.949182 29.1103 1.05182 26.9977C1.17547 24.8996 1.49407 22.457 2.20199 19.8925C2.57674 18.6105 3.03238 17.2998 3.59393 16.024C3.6602 15.888 3.72553 15.7532 3.79029 15.6195C4.37323 14.4166 4.90956 13.3099 5.66074 12.2926L5.68746 12.2565L5.71083 12.218C6.43431 11.0278 7.37935 9.96174 8.39159 8.89379L8.41776 8.86618L8.44176 8.83666C8.84215 8.34413 9.32733 7.91279 9.8718 7.47547C10.0497 7.33258 10.2444 7.18129 10.4453 7.02516C10.8154 6.73759 11.2066 6.43365 11.5525 6.13579C12.0279 5.75162 12.5467 5.42941 13.1001 5.11328C13.2767 5.01241 13.4645 4.90808 13.6567 4.8013C14.041 4.58779 14.443 4.36451 14.8078 4.13966L14.8184 4.13314L14.8288 4.12635C15.2741 3.83639 15.7511 3.62193 16.2651 3.42083C16.4253 3.35818 16.6016 3.29245 16.7846 3.22426C17.1338 3.0941 17.5071 2.95498 17.8376 2.81113C18.118 2.70502 18.3745 2.60358 18.6129 2.50927C19.2985 2.2381 19.835 2.02588 20.3631 1.93111L20.3944 1.9255L20.4253 1.91791C20.9016 1.8008 21.3221 1.70021 21.7108 1.60722C22.005 1.53686 22.2809 1.47085 22.5491 1.40532C22.5505 1.40496 22.552 1.40461 22.5535 1.40425L23.4361 1.19724L24.471 5.22913L23.8203 5.49212L23.8174 5.49329L22.1871 6.14628C21.7681 6.28287 21.3861 6.48044 21.0468 6.67292C20.8887 6.76261 20.7299 6.85711 20.5786 6.94709L20.5288 6.97668C20.3591 7.07753 20.1962 7.17378 20.0303 7.26631L20.0012 7.28253L19.9732 7.30066C19.7716 7.43139 19.572 7.53819 19.332 7.66665C19.2067 7.73365 19.0705 7.80655 18.9173 7.89181C18.5147 8.11575 18.0503 8.39861 17.6308 8.79772C17.4135 8.99242 17.1833 9.16683 16.9143 9.37059C16.8189 9.44287 16.7186 9.51883 16.6123 9.6007C16.2274 9.89713 15.7921 10.2515 15.4112 10.6975L15.3993 10.7114L15.388 10.7257C15.2027 10.9594 15.0051 11.1625 14.77 11.4041C14.6754 11.5013 14.5748 11.6047 14.4665 11.7189C14.1288 12.0747 13.7479 12.5063 13.4563 13.0455C13.4457 13.0611 13.4351 13.0768 13.4245 13.0925C12.9168 13.8422 12.3412 14.6921 11.9552 15.6779C11.567 16.3994 11.3289 17.1778 11.1269 17.8384L11.1231 17.8506L10.6636 19.3534L12.2196 19.1332C12.2646 19.1268 12.3092 19.1205 12.3534 19.1142C12.9781 19.0254 13.5246 18.9477 14.0884 18.9477L14.0887 18.9477C16.5321 18.9469 18.9238 19.619 20.987 20.8837C23.0499 22.1483 24.6985 23.9526 25.7457 26.0847C26.7928 28.2166 27.197 30.5911 26.9135 32.9345C26.6299 35.2781 25.6695 37.4986 24.1399 39.3386C22.6099 41.1789 20.5726 42.5637 18.2613 43.329C15.9498 44.0943 13.4618 44.2076 11.0862 43.6554C8.71074 43.1032 6.54807 41.909 4.84699 40.2146C3.14617 38.5204 1.97631 36.3957 1.4688 34.0876L1.25312 33.1067ZM35.2516 33.1067L35.24 33.1093C35.196 32.7791 35.1599 32.448 35.1315 32.1161L35.1309 32.1089L35.1302 32.1018C35.006 30.8592 34.9445 29.1163 35.0472 27.0037C35.1708 24.9056 35.4894 22.4629 36.1974 19.8983C36.5721 18.6163 37.0278 17.3057 37.5893 16.0299C37.6556 15.8939 37.7209 15.7592 37.7856 15.6256C38.3686 14.4227 38.9049 13.3159 39.6561 12.2987L39.6828 12.2625L39.7062 12.224C40.4297 11.0338 41.3747 9.96775 42.3869 8.8998L42.4131 8.87219L42.4371 8.84267C42.8375 8.35014 43.3227 7.91881 43.8671 7.48148C44.045 7.33861 44.2397 7.18732 44.4406 7.03121C44.8108 6.74363 45.2019 6.43967 45.5478 6.14179C46.0232 5.75763 46.542 5.43542 47.0954 5.1193C47.272 5.01844 47.4598 4.91411 47.652 4.80733C48.0364 4.59382 48.4383 4.37054 48.8032 4.14569L48.8138 4.13916L48.8242 4.13237C49.2695 3.84241 49.7464 3.62795 50.2605 3.42685C50.4206 3.3642 50.5969 3.29848 50.7799 3.2303C51.1291 3.10013 51.5024 2.96099 51.833 2.81714C52.1134 2.71104 52.3698 2.6096 52.6082 2.5153C53.2938 2.24412 53.8304 2.03189 54.3585 1.93713L54.3898 1.93152L54.4206 1.92393C54.8968 1.80684 55.3173 1.70625 55.706 1.61327C56.0002 1.54289 56.2763 1.47686 56.5445 1.41133C56.5459 1.41097 56.5474 1.41062 56.5488 1.41026L57.4315 1.20326L58.466 5.23401C58.2801 5.30843 58.0644 5.39451 57.8213 5.49111L57.8188 5.49212L56.1856 6.14629C55.7665 6.28288 55.3846 6.48045 55.0453 6.67292C54.8872 6.7626 54.7283 6.85709 54.5771 6.94706L54.5272 6.97669C54.3576 7.07753 54.1947 7.17378 54.0287 7.26631L53.9996 7.28253L53.9716 7.30066C53.77 7.4314 53.5704 7.53819 53.3304 7.66665C53.2052 7.73365 53.069 7.80655 52.9157 7.89181C52.5131 8.11574 52.0488 8.3986 51.6293 8.7977C51.412 8.99241 51.1817 9.16683 50.9127 9.3706C50.8173 9.44287 50.717 9.51884 50.6107 9.60071C50.2258 9.89713 49.7905 10.2515 49.4096 10.6975L49.3978 10.7114L49.3865 10.7257C49.2011 10.9595 49.0035 11.1625 48.7684 11.4041C48.6739 11.5013 48.5732 11.6047 48.4649 11.7189C48.1272 12.0747 47.7464 12.5063 47.4547 13.0455C47.4441 13.0611 47.4335 13.0767 47.4229 13.0924C46.9152 13.8421 46.3396 14.6921 45.9536 15.6779C45.5654 16.3994 45.3273 17.1779 45.1253 17.8384L45.1216 17.8506L44.662 19.3534L46.218 19.1332C46.263 19.1268 46.3076 19.1205 46.3517 19.1142C46.9765 19.0254 47.523 18.9477 48.0869 18.9477L48.0872 18.9477C50.5305 18.9469 52.9222 19.619 54.9854 20.8837C57.0483 22.1483 58.697 23.9526 59.7442 26.0847C60.7913 28.2166 61.1955 30.5911 60.9119 32.9346C60.6283 35.2781 59.668 37.4986 58.1383 39.3386C56.6084 41.1789 54.571 42.5637 52.2597 43.329C49.9483 44.0943 47.4603 44.2076 45.0847 43.6554C42.7092 43.1032 40.5465 41.909 38.8454 40.2146C37.1446 38.5204 35.9748 36.3957 35.4672 34.0876L35.2516 33.1067Z"/></svg>