<svg width="26" height="26" viewBox="0 0 26 26" fill="none" xmlns="http://www.w3.org/2000/svg">
<path d="M19.2026 9.84428C19.2123 9.97761 19.2123 10.1102 19.2123 10.2427C19.2123 14.2998 16.2025 18.9748 10.7021 18.9748C9.0075 18.9748 7.43319 18.4712 6.1084 17.5965C6.349 17.6247 6.58069 17.6346 6.83095 17.6346C8.17727 17.6379 9.48547 17.1761 10.5447 16.3234C9.92047 16.3118 9.31537 16.1005 8.81386 15.719C8.31236 15.3375 7.93949 14.8049 7.74731 14.1954C7.93222 14.2236 8.11787 14.2427 8.31243 14.2427C8.58051 14.2427 8.85007 14.2046 9.10033 14.1383C8.4229 13.998 7.81376 13.6212 7.37647 13.0722C6.93919 12.5231 6.70076 11.8356 6.70173 11.1265V11.0884C7.10051 11.3162 7.56315 11.4587 8.05326 11.4778C7.64267 11.1978 7.306 10.818 7.07329 10.3721C6.84057 9.92622 6.71905 9.42817 6.71956 8.92239C6.71956 8.3525 6.86733 7.82984 7.1265 7.37423C7.87811 8.3228 8.81554 9.09881 9.87808 9.65202C10.9406 10.2052 12.1046 10.5233 13.2945 10.5856C13.2485 10.357 13.2203 10.1201 13.2203 9.88237C13.2201 9.4793 13.2973 9.08014 13.4476 8.70772C13.5978 8.33529 13.8181 7.9969 14.0959 7.71189C14.3737 7.42688 14.7035 7.20083 15.0665 7.04667C15.4295 6.89252 15.8186 6.81328 16.2115 6.81348C17.0729 6.81348 17.8504 7.18376 18.3969 7.7826C19.0666 7.64974 19.7088 7.39893 20.295 7.04128C20.0718 7.75046 19.6042 8.35181 18.9799 8.73268C19.5738 8.66318 20.1542 8.50293 20.7019 8.25726C20.2929 8.86913 19.786 9.40569 19.2026 9.84428Z" fill="black"/>
<circle cx="12.9998" cy="12.8948" r="12.2167" stroke="black" stroke-width="0.7"/>
</svg>
