<svg width="26" height="26" viewBox="0 0 26 26" fill="none" xmlns="http://www.w3.org/2000/svg">
<path d="M19.2029 9.84428C19.2125 9.97761 19.2125 10.1102 19.2125 10.2427C19.2125 14.2998 16.2028 18.9748 10.7024 18.9748C9.00775 18.9748 7.43344 18.4712 6.10864 17.5965C6.34924 17.6247 6.58094 17.6346 6.83119 17.6346C8.17752 17.6379 9.48572 17.1761 10.5449 16.3234C9.92071 16.3118 9.31561 16.1005 8.81411 15.719C8.3126 15.3375 7.93973 14.8049 7.74756 14.1954C7.93246 14.2236 8.11811 14.2427 8.31268 14.2427C8.58075 14.2427 8.85032 14.2046 9.10057 14.1383C8.42314 13.998 7.814 13.6212 7.37672 13.0722C6.93944 12.5231 6.70101 11.8356 6.70198 11.1265V11.0884C7.10075 11.3162 7.56339 11.4587 8.05351 11.4778C7.64292 11.1978 7.30625 10.818 7.07353 10.3721C6.84081 9.92622 6.71929 9.42817 6.7198 8.92239C6.7198 8.3525 6.86758 7.82984 7.12675 7.37423C7.87836 8.3228 8.81579 9.09881 9.87832 9.65202C10.9409 10.2052 12.1048 10.5233 13.2948 10.5856C13.2487 10.357 13.2205 10.1201 13.2205 9.88237C13.2203 9.4793 13.2976 9.08014 13.4478 8.70772C13.5981 8.33529 13.8184 7.9969 14.0962 7.71189C14.374 7.42688 14.7038 7.20083 15.0668 7.04667C15.4298 6.89252 15.8188 6.81328 16.2117 6.81348C17.0731 6.81348 17.8506 7.18376 18.3972 7.7826C19.0668 7.64974 19.709 7.39893 20.2952 7.04128C20.072 7.75046 19.6045 8.35181 18.9801 8.73268C19.574 8.66318 20.1545 8.50293 20.7022 8.25726C20.2931 8.86913 19.7862 9.40569 19.2029 9.84428Z" fill="white"/>
<circle cx="13" cy="12.8948" r="12.2167" stroke="white" stroke-width="0.7"/>
</svg>
